<?xml version="1.0" encoding="UTF-8" standalone="no"?>
<svg
   viewBox="0 0 613.71997 545.03998"
   height="545.03998"
   width="613.71997"
   xml:space="preserve"
   id="svg2"
   version="1.1"
   sodipodi:docname="register.svg"
   inkscape:version="1.1 (c68e22c387, 2021-05-23)"
   xmlns:inkscape="http://www.inkscape.org/namespaces/inkscape"
   xmlns:sodipodi="http://sodipodi.sourceforge.net/DTD/sodipodi-0.dtd"
   xmlns="http://www.w3.org/2000/svg"
   xmlns:svg="http://www.w3.org/2000/svg"
   xmlns:rdf="http://www.w3.org/1999/02/22-rdf-syntax-ns#"
   xmlns:cc="http://creativecommons.org/ns#"
   xmlns:dc="http://purl.org/dc/elements/1.1/"><sodipodi:namedview
     id="namedview243"
     pagecolor="#ffffff"
     bordercolor="#666666"
     borderopacity="1.0"
     inkscape:pageshadow="2"
     inkscape:pageopacity="0.0"
     inkscape:pagecheckerboard="0"
     showgrid="false"
     inkscape:zoom="0.79994132"
     inkscape:cx="306.89751"
     inkscape:cy="321.89861"
     inkscape:window-width="1366"
     inkscape:window-height="705"
     inkscape:window-x="-8"
     inkscape:window-y="-8"
     inkscape:window-maximized="1"
     inkscape:current-layer="g12" /><metadata
     id="metadata8"><rdf:RDF><cc:Work
         rdf:about=""><dc:format>image/svg+xml</dc:format><dc:type
           rdf:resource="http://purl.org/dc/dcmitype/StillImage" /></cc:Work></rdf:RDF></metadata><defs
     id="defs6" /><g
     transform="matrix(0.13333333,0,0,-0.13333333,0,545.04)"
     id="g12"><path
       id="path14"
       style="fill:#dadbd8;fill-opacity:1;fill-rule:nonzero;stroke:none"
       d="m 4045.83,3177.91 c 0,0 5.72,-0.4 14.98,-4.69 9.07,-4.22 21.93,-13.44 29.86,-30.22 3.85,-8.29 6.5,-18.32 6.09,-29.19 -0.45,-10.77 -3.33,-22.44 -10.04,-32.72 -3.19,-5.21 -7.34,-10 -12.19,-14.18 -4.78,-4.24 -10.35,-7.83 -16.47,-10.45 -12.14,-5.51 -26.53,-6.96 -40.35,-3.99 -13.76,3.21 -26.17,10.67 -34.8,20.84 -4.41,4.99 -7.92,10.61 -10.43,16.49 -2.6,5.85 -4.3,11.96 -4.97,18.03 -1.68,12.16 0.71,23.95 4.9,33.88 4.27,10 10.95,17.94 17.98,23.79 14.34,11.77 29.9,14.62 39.9,14.57 10.21,-0.08 15.54,-2.16 15.54,-2.16 -0.07,-0.45 -5.53,1.1 -15.51,0.74 -9.78,-0.37 -24.71,-3.56 -38.28,-15.12 -6.65,-5.74 -12.91,-13.43 -16.86,-23.01 -3.87,-9.52 -6.03,-20.75 -4.35,-32.27 0.68,-5.75 2.34,-11.52 4.83,-17.04 2.4,-5.56 5.75,-10.87 9.94,-15.56 8.19,-9.59 19.9,-16.58 32.91,-19.63 13.05,-2.79 26.62,-1.48 38.12,3.7 5.79,2.46 11.09,5.83 15.63,9.82 4.61,3.93 8.57,8.44 11.64,13.35 6.43,9.69 9.29,20.77 9.85,31.04 0.52,10.34 -1.86,19.96 -5.42,28 -7.32,16.24 -19.46,25.52 -28.15,30.03 -8.86,4.58 -14.47,5.51 -14.35,5.95" /><path
       id="path16"
       style="fill:#dadbd8;fill-opacity:1;fill-rule:nonzero;stroke:none"
       d="m 4096.65,3245.73 c -0.05,-0.03 -0.09,0.72 -0.13,2.22 -0.04,1.66 -0.1,3.88 -0.17,6.76 -0.08,6.19 -0.21,15.12 -0.36,26.7 l 0.45,-0.56 c -14.78,3.22 -34.21,7.46 -57.71,12.59 l 1.04,0.51 c -4.6,-9.79 -9.71,-20.66 -15.18,-32.3 l -0.27,-0.58 -0.66,-0.03 c -11.99,-0.51 -24.73,-2.58 -37.61,-6.68 l -0.69,-0.22 -0.51,0.52 c -7.91,7.82 -16.48,16.3 -25.38,25.11 l 1.61,-0.17 c -15.69,-9.99 -32.34,-20.59 -49.82,-31.72 l 0.59,1.68 c 3.72,-10.4 7.83,-21.86 12.04,-33.61 l 0.3,-0.85 -0.62,-0.67 c -8.05,-8.71 -15.77,-19.34 -21.89,-31.19 l -0.44,-0.84 -0.94,-0.01 c -11.07,-0.03 -23.27,-0.08 -35.69,-0.12 l 1.57,1.27 c -4.03,-18.11 -8.38,-37.64 -12.85,-57.66 l -0.93,1.9 c 10.04,-4.75 21.08,-9.98 32.25,-15.28 l 0.95,-0.45 0.04,-1.04 c 0.47,-11.92 2.56,-24.89 6.55,-37.47 l 0.32,-1.02 -0.75,-0.75 c -7.88,-7.93 -16.48,-16.58 -25.18,-25.32 l 0.25,2.21 c 10.01,-15.79 20.75,-32.72 31.63,-49.88 l -2.13,0.73 c 10.62,3.79 22.08,7.87 33.63,11.99 l 1.04,0.36 0.81,-0.74 c 8.86,-8.22 19.46,-15.87 31.05,-21.88 l 0.01,-0.01 h 0.01 c 0.44,-0.73 -0.97,1.6 0.99,-1.62 v -0.03 -0.07 -0.14 -0.29 -0.56 -1.12 l 0.01,-2.25 0.01,-4.48 0.02,-8.96 c 0.01,-5.95 0.02,-11.88 0.03,-17.78 l -1.42,1.76 c 19.47,-4.37 38.69,-8.69 57.64,-12.94 l -2.02,-0.98 c 5.15,10.85 10.26,21.59 15.32,32.23 l 0.46,0.98 1.08,0.04 c 12.86,0.48 25.5,2.72 37.48,6.49 l 1.02,0.32 0.75,-0.75 c 8.55,-8.53 16.97,-16.92 25.28,-25.2 l -2.15,0.23 c 17.05,10.77 33.7,21.3 49.93,31.56 l -0.69,-1.98 c -4.04,11.42 -8.02,22.64 -11.93,33.65 l -0.33,0.94 0.67,0.72 c 8.86,9.53 16.21,20.06 21.98,31.1 l 0.44,0.85 h 0.96 c 12.24,0 24.09,0.01 35.67,0.01 l -1.46,-1.18 c 4.59,20.27 8.93,39.39 13.05,57.61 l 0.76,-1.57 c -11.32,5.42 -21.96,10.5 -32.2,15.39 l -0.71,0.34 -0.03,0.79 c -0.51,13.62 -2.87,26.14 -6.45,37.63 l -0.21,0.7 0.51,0.51 c 9.18,9.16 17.45,17.41 25.27,25.21 l -0.15,-1.34 c -12.16,19.39 -22.52,35.9 -31.39,50.04 l 0.96,-0.33 c -13.46,-4.7 -24.51,-8.55 -33.71,-11.76 l -0.34,-0.12 -0.25,0.25 c -9.49,8.85 -17.54,14.24 -22.92,17.65 -2.64,1.59 -4.66,2.81 -6.14,3.7 -1.42,0.82 -2.07,1.22 -2.02,1.25 0.04,0.02 0.78,-0.31 2.17,-0.98 1.41,-0.73 3.54,-1.83 6.3,-3.46 5.51,-3.26 13.72,-8.51 23.41,-17.31 l -0.6,0.13 c 9.16,3.32 20.15,7.32 33.56,12.18 l 0.6,0.22 0.35,-0.55 c 9,-14.06 19.51,-30.48 31.84,-49.76 l 0.46,-0.71 -0.61,-0.62 c -7.76,-7.85 -15.98,-16.16 -25.1,-25.38 l 0.29,1.2 c 3.71,-11.65 6.19,-24.38 6.78,-38.24 l -0.75,1.12 c 10.27,-4.85 20.92,-9.87 32.27,-15.23 l 1.01,-0.48 -0.25,-1.08 c -4.04,-18.23 -8.3,-37.38 -12.81,-57.66 l -0.27,-1.18 h -1.21 c -11.58,-0.05 -23.44,-0.1 -35.68,-0.14 l 1.4,0.84 c -5.86,-11.3 -13.36,-22.08 -22.39,-31.85 l 0.35,1.65 c 3.93,-11.01 7.94,-22.22 12.01,-33.62 l 0.45,-1.26 -1.14,-0.72 c -16.21,-10.29 -32.83,-20.85 -49.85,-31.66 l -1.17,-0.74 -0.98,0.98 c -8.33,8.28 -16.76,16.65 -25.32,25.17 l 1.77,-0.43 c -12.27,-3.89 -25.22,-6.2 -38.4,-6.71 l 1.54,1.02 c -5.05,-10.64 -10.14,-21.39 -15.29,-32.25 l -0.62,-1.3 -1.4,0.32 c -18.95,4.24 -38.17,8.54 -57.64,12.91 l -1.42,0.32 -0.01,1.45 c 0,5.9 -0.01,11.83 -0.03,17.79 l -0.02,8.95 v 4.48 l -0.01,2.25 v 1.12 0.57 0.28 0.14 0.07 0.04 c 1.95,-3.22 0.53,-0.89 0.96,-1.61 h -0.01 l -0.01,0.01 c -11.88,6.17 -22.76,14.01 -31.84,22.45 l 1.83,-0.39 c -11.54,-4.1 -23,-8.18 -33.63,-11.96 l -1.37,-0.49 -0.77,1.22 c -10.87,17.18 -21.58,34.11 -31.58,49.92 l -0.77,1.2 1,1.01 c 8.71,8.72 17.32,17.36 25.22,25.28 l -0.43,-1.77 c -4.07,12.89 -6.2,26.19 -6.66,38.39 l 0.99,-1.49 c -11.17,5.32 -22.18,10.57 -32.22,15.35 l -1.22,0.57 0.3,1.33 c 4.51,20 8.91,39.51 12.99,57.62 l 0.29,1.26 h 1.29 c 12.42,0.01 24.62,0.02 35.69,0.02 l -1.39,-0.84 c 6.3,12.09 14.22,22.93 22.47,31.78 l -0.31,-1.52 c -4.16,11.76 -8.23,23.23 -11.92,33.65 l -0.38,1.09 0.97,0.6 c 17.53,11.06 34.23,21.58 49.96,31.5 l 0.88,0.55 0.73,-0.73 c 8.85,-8.86 17.36,-17.39 25.23,-25.26 l -1.21,0.29 c 13.12,4.09 26.09,6.1 38.27,6.53 l -0.92,-0.61 c 5.55,11.59 10.75,22.43 15.43,32.17 l 0.32,0.67 0.71,-0.16 c 23.45,-5.4 42.83,-9.86 57.56,-13.26 l 0.46,-0.1 v -0.47 c -0.11,-11.48 -0.19,-20.33 -0.25,-26.46 -0.05,-2.92 -0.09,-5.17 -0.12,-6.86 -0.05,-1.54 -0.09,-2.34 -0.13,-2.36" /><path
       id="path18"
       style="fill:#dadbd8;fill-opacity:1;fill-rule:nonzero;stroke:none"
       d="m 4446.06,365.18 c 0,0 -0.12,3.75 -0.18,10.879 -0.04,7.211 -0.1,17.773 -0.17,31.562 -0.1,27.731 -0.25,68.399 -0.42,120.609 -0.21,104.352 -0.51,254.77 -0.87,439.442 l 1.64,-1.652 c -279.39,-0.129 -643.87,-0.29 -1041.28,-0.481 h -0.08 l 2.13,2.133 c -0.06,-213.242 -0.11,-416.973 -0.16,-602.492 l -1.97,1.972 c 304.95,-0.39 565.03,-0.722 748.97,-0.961 92.05,-0.23 165.02,-0.421 215.1,-0.531 24.98,-0.109 44.24,-0.199 57.36,-0.25 6.46,-0.058 11.39,-0.09 14.82,-0.109 3.35,-0.039 5.11,-0.121 5.11,-0.121 0,0 -1.6,-0.09 -4.88,-0.129 -3.37,-0.02 -8.23,-0.071 -14.6,-0.121 -13.02,-0.039 -32.13,-0.129 -56.95,-0.239 -49.97,-0.132 -122.79,-0.3 -214.64,-0.543 -184.27,-0.226 -444.8,-0.558 -750.29,-0.949 l -1.98,-0.008 v 1.989 c -0.05,185.519 -0.1,389.25 -0.16,602.492 v 2.129 h 2.14 0.08 c 397.41,-0.192 761.89,-0.36 1041.28,-0.488 h 1.65 l -0.01,-1.641 c -0.36,-185.102 -0.67,-335.859 -0.87,-440.461 -0.18,-52.051 -0.32,-92.59 -0.41,-120.231 -0.09,-13.671 -0.15,-24.121 -0.19,-31.25 -0.06,-7.039 -0.17,-10.55 -0.17,-10.55" /><path
       id="path20"
       style="fill:#dadbd8;fill-opacity:1;fill-rule:nonzero;stroke:none"
       d="m 4446.46,894.719 c 0,-1.18 -232.93,-2.137 -520.2,-2.137 -287.36,0 -520.23,0.957 -520.23,2.137 0,1.172 232.87,2.133 520.23,2.133 287.27,0 520.2,-0.961 520.2,-2.133" /><path
       id="path22"
       style="fill:#f3f2f1;fill-opacity:1;fill-rule:nonzero;stroke:none"
       d="m 3816.56,473.691 h -321.67 v 321.68 h 321.67 v -321.68" /><path
       id="path24"
       style="fill:#dadbd8;fill-opacity:1;fill-rule:nonzero;stroke:none"
       d="m 4370.54,742.32 c 0,-0.16 -1.63,-0.3 -4.73,-0.429 -3.57,-0.11 -8.06,-0.25 -13.57,-0.399 -12.36,-0.172 -29.26,-0.402 -49.89,-0.691 -42.65,-0.153 -100.59,-0.379 -164.6,-0.61 -64.05,0.231 -121.99,0.457 -164.63,0.61 -20.64,0.289 -37.53,0.519 -49.9,0.691 -5.5,0.149 -10,0.289 -13.56,0.399 -3.11,0.129 -4.74,0.269 -4.74,0.429 0,0.141 1.63,0.282 4.74,0.43 3.56,0.102 8.06,0.23 13.56,0.398 12.37,0.161 29.26,0.391 49.9,0.672 42.64,0.16 100.58,0.379 164.63,0.629 64.01,-0.25 121.95,-0.469 164.6,-0.629 20.63,-0.281 37.53,-0.511 49.89,-0.672 5.51,-0.168 10,-0.296 13.57,-0.398 3.1,-0.148 4.73,-0.289 4.73,-0.43" /><path
       id="path26"
       style="fill:#dadbd8;fill-opacity:1;fill-rule:nonzero;stroke:none"
       d="m 4380.9,670.461 c 0,-0.141 -1.66,-0.289 -4.83,-0.43 -3.64,-0.101 -8.23,-0.23 -13.87,-0.402 -12.62,-0.16 -29.9,-0.399 -51.01,-0.668 -43.58,-0.172 -102.81,-0.379 -168.27,-0.629 -65.47,0.25 -124.7,0.457 -168.29,0.629 -21.1,0.269 -38.39,0.508 -51,0.668 -5.64,0.172 -10.23,0.301 -13.86,0.402 -3.18,0.141 -4.85,0.289 -4.85,0.43 0,0.148 1.67,0.301 4.85,0.43 3.63,0.109 8.22,0.238 13.86,0.398 12.61,0.172 29.9,0.391 51,0.68 43.58,0.16 102.82,0.383 168.29,0.621 65.46,-0.238 124.69,-0.461 168.27,-0.621 21.11,-0.289 38.39,-0.508 51.01,-0.68 5.64,-0.16 10.23,-0.289 13.87,-0.398 3.17,-0.129 4.83,-0.282 4.83,-0.43" /><path
       id="path28"
       style="fill:#dadbd8;fill-opacity:1;fill-rule:nonzero;stroke:none"
       d="m 4380.9,598.609 c 0,-0.148 -1.66,-0.3 -4.83,-0.429 -3.64,-0.098 -8.23,-0.239 -13.87,-0.399 -12.62,-0.172 -29.9,-0.39 -51.01,-0.679 -43.58,-0.153 -102.81,-0.383 -168.27,-0.622 -65.47,0.239 -124.7,0.469 -168.29,0.622 -21.1,0.289 -38.39,0.507 -51,0.679 -5.64,0.16 -10.23,0.301 -13.86,0.399 -3.18,0.129 -4.85,0.281 -4.85,0.429 0,0.141 1.67,0.293 4.85,0.43 3.63,0.102 8.22,0.242 13.86,0.402 12.61,0.161 29.9,0.399 51,0.668 43.58,0.172 102.82,0.383 168.29,0.633 65.46,-0.25 124.69,-0.461 168.27,-0.633 21.11,-0.269 38.39,-0.507 51.01,-0.668 5.64,-0.16 10.23,-0.3 13.87,-0.402 3.17,-0.137 4.83,-0.289 4.83,-0.43" /><path
       id="path30"
       style="fill:#dadbd8;fill-opacity:1;fill-rule:nonzero;stroke:none"
       d="m 4380.9,526.762 c 0,-0.153 -1.66,-0.293 -4.83,-0.43 -3.64,-0.113 -8.23,-0.242 -13.87,-0.402 -12.62,-0.168 -29.9,-0.399 -51.01,-0.68 -43.58,-0.16 -102.81,-0.379 -168.27,-0.621 -65.47,0.242 -124.7,0.461 -168.29,0.621 -21.1,0.281 -38.39,0.512 -51,0.68 -5.64,0.16 -10.23,0.289 -13.86,0.402 -3.18,0.137 -4.85,0.277 -4.85,0.43 0,0.148 1.67,0.277 4.85,0.429 3.63,0.098 8.22,0.239 13.86,0.399 12.61,0.172 29.9,0.39 51,0.672 43.58,0.16 102.82,0.39 168.29,0.629 65.46,-0.239 124.69,-0.469 168.27,-0.629 21.11,-0.282 38.39,-0.5 51.01,-0.672 5.64,-0.16 10.23,-0.301 13.87,-0.399 3.17,-0.152 4.83,-0.281 4.83,-0.429" /><path
       id="path36"
       style="fill:#dadbd8;fill-opacity:1;fill-rule:nonzero;stroke:none"
       d="m 1433.75,4016.68 c 1.55,0 2.8,-16.28 2.8,-36.36 0,-20.08 -1.25,-36.35 -2.8,-36.35 -1.55,0 -2.8,16.27 -2.8,36.35 0,20.08 1.25,36.36 2.8,36.36" /><path
       id="path62"
       style="fill:#f3f2f1;fill-opacity:1;fill-rule:nonzero;stroke:none"
       d="m 438.461,2873.81 h 739.729 c 0,0 -65.41,119.03 -255.827,101.71 -181.847,-16.55 -191.097,58.56 -283.562,67.81 -92.465,9.25 -169.524,-61.65 -200.34,-169.52" /><path
       id="path64"
       style="fill:#f3f2f1;fill-opacity:1;fill-rule:nonzero;stroke:none"
       d="m 2039.42,1528.89 h 598.76 c 0,0 -52.94,96.35 -207.07,82.32 -147.2,-13.38 -154.68,47.41 -229.53,54.9 -74.84,7.48 -137.21,-49.91 -162.16,-137.22" /><path
       id="path66"
       style="fill:#17282f;fill-opacity:1;fill-rule:nonzero;stroke:none"
       d="m 4602.9,51.4414 c 0,-1.4492 -1030.48,-2.6094 -2301.34,-2.6094 -1271.3,0 -2301.55609375,1.1602 -2301.55609375,2.6094 0,1.4297 1030.25609375,2.5977 2301.55609375,2.5977 1270.86,0 2301.34,-1.168 2301.34,-2.5977" /><path
       id="path68"
       style="fill:#ffffff;fill-opacity:1;fill-rule:nonzero;stroke:none"
       d="m 2900.54,2075.63 h 1452.82 v 972.75 H 2900.54 Z" /><path
       id="path70"
       style="fill:#f03d5f;fill-opacity:1;fill-rule:nonzero;stroke:none"
       d="m 4353.36,2075.63 c 0,0 -0.14,6.08 -0.22,17.69 -0.05,11.69 -0.13,28.88 -0.23,51.33 -0.12,45.02 -0.3,111.07 -0.53,195.63 -0.26,169.01 -0.64,411.94 -1.1,708.1 l 2.08,-2.08 c -400.33,-0.14 -905.35,-0.33 -1452.7,-0.52 h -0.12 l 2.61,2.6 c -0.08,-346.55 -0.16,-676.09 -0.23,-972.75 l -2.38,2.38 c 427.68,-0.48 790.58,-0.88 1046.67,-1.17 128.14,-0.28 229.55,-0.49 299.03,-0.65 34.69,-0.12 61.4,-0.22 79.54,-0.28 8.98,-0.06 15.82,-0.11 20.54,-0.15 4.62,-0.04 7.04,-0.13 7.04,-0.13 0,0 -2.23,-0.09 -6.77,-0.14 -4.64,-0.04 -11.39,-0.08 -20.26,-0.15 -18.04,-0.06 -44.58,-0.16 -79.07,-0.28 -69.35,-0.15 -170.57,-0.37 -298.49,-0.64 -256.47,-0.29 -619.91,-0.7 -1048.23,-1.18 h -2.38 v 2.39 c -0.07,296.66 -0.15,626.2 -0.23,972.75 v 2.61 h 2.61 0.12 c 547.35,-0.2 1052.37,-0.38 1452.7,-0.52 l 2.09,-0.01 -0.01,-2.08 c -0.45,-296.7 -0.83,-540.08 -1.08,-709.39 -0.24,-84.37 -0.41,-150.26 -0.54,-195.17 -0.1,-22.28 -0.17,-39.33 -0.23,-50.94 -0.07,-11.47 -0.23,-17.25 -0.23,-17.25" /><path
       id="path72"
       style="fill:#f03d5f;fill-opacity:1;fill-rule:nonzero;stroke:none"
       d="m 2900.54,2961.58 c 0,1.43 324.98,2.6 725.78,2.6 400.93,0 725.84,-1.17 725.84,-2.6 0,-1.45 -324.91,-2.61 -725.84,-2.61 -400.8,0 -725.78,1.16 -725.78,2.61" /><path
       id="path74"
       style="fill:#f9b2c4;fill-opacity:1;fill-rule:nonzero;stroke:none"
       d="m 2946.21,2993.72 c -6.43,0 -11.64,5.22 -11.64,11.65 0,6.43 5.21,11.64 11.64,11.64 6.44,0 11.64,-5.21 11.64,-11.64 0,-6.43 -5.2,-11.65 -11.64,-11.65" /><path
       id="path76"
       style="fill:#f9b2c4;fill-opacity:1;fill-rule:nonzero;stroke:none"
       d="m 2986.12,2993.72 c -6.44,0 -11.65,5.22 -11.65,11.65 0,6.43 5.21,11.64 11.65,11.64 6.42,0 11.64,-5.21 11.64,-11.64 0,-6.43 -5.22,-11.65 -11.64,-11.65" /><path
       id="path78"
       style="fill:#f9b2c4;fill-opacity:1;fill-rule:nonzero;stroke:none"
       d="m 3025.44,2993.72 c -6.43,0 -11.65,5.22 -11.65,11.65 0,6.43 5.22,11.64 11.65,11.64 6.43,0 11.64,-5.21 11.64,-11.64 0,-6.43 -5.21,-11.65 -11.64,-11.65" /><path
       id="path80"
       style="fill:#f9b2c4;fill-opacity:1;fill-rule:nonzero;stroke:none"
       d="m 3025.44,2472.59 h 387.539 v 387.539 H 3025.44 Z" /><path
       id="path82"
       style="fill:#f03d5f;fill-opacity:1;fill-rule:nonzero;stroke:none"
       d="m 4154.13,2750.59 c 0,-1.44 -151.14,-2.6 -337.55,-2.6 -186.47,0 -337.58,1.16 -337.58,2.6 0,1.44 151.11,2.61 337.58,2.61 186.41,0 337.55,-1.17 337.55,-2.61" /><path
       id="path84"
       style="fill:#f03d5f;fill-opacity:1;fill-rule:nonzero;stroke:none"
       d="m 4154.13,2678.58 c 0,-1.44 -151.14,-2.61 -337.55,-2.61 -186.47,0 -337.58,1.17 -337.58,2.61 0,1.43 151.11,2.6 337.58,2.6 186.41,0 337.55,-1.17 337.55,-2.6" /><path
       id="path86"
       style="fill:#f03d5f;fill-opacity:1;fill-rule:nonzero;stroke:none"
       d="m 4154.13,2606.56 c 0,-1.44 -151.14,-2.61 -337.55,-2.61 -186.47,0 -337.58,1.17 -337.58,2.61 0,1.44 151.11,2.6 337.58,2.6 186.41,0 337.55,-1.16 337.55,-2.6" /><path
       id="path88"
       style="fill:#f03d5f;fill-opacity:1;fill-rule:nonzero;stroke:none"
       d="m 3878.02,2534.54 c 0,-0.36 -5.59,-0.7 -15.68,-1.01 -11.03,-0.22 -25.42,-0.49 -42.76,-0.83 -36.1,-0.47 -85.97,-0.76 -141.06,-0.76 -55.11,0 -104.98,0.29 -141.09,0.76 -17.34,0.34 -31.72,0.61 -42.75,0.83 -10.1,0.31 -15.68,0.65 -15.68,1.01 0,0.36 5.58,0.7 15.68,1.01 11.03,0.22 25.41,0.5 42.75,0.83 36.11,0.47 85.98,0.77 141.09,0.77 55.09,0 104.96,-0.3 141.06,-0.77 17.34,-0.33 31.73,-0.61 42.76,-0.83 10.09,-0.31 15.68,-0.65 15.68,-1.01" /><path
       id="path90"
       style="fill:#f9b2c4;fill-opacity:1;fill-rule:nonzero;stroke:none"
       d="m 3049.69,2159.8 h 182.129 v 182.129 H 3049.69 Z" /><path
       id="path92"
       style="fill:#f9b2c4;fill-opacity:1;fill-rule:nonzero;stroke:none"
       d="m 3379.98,2159.8 h 182.121 v 182.129 H 3379.98 Z" /><path
       id="path94"
       style="fill:#f9b2c4;fill-opacity:1;fill-rule:nonzero;stroke:none"
       d="m 3710.27,2159.8 h 182.121 v 182.129 H 3710.27 Z" /><path
       id="path96"
       style="fill:#f9b2c4;fill-opacity:1;fill-rule:nonzero;stroke:none"
       d="m 4040.56,2159.8 h 182.133 v 182.129 H 4040.56 Z" /><path
       id="path118"
       style="fill:#f3f2f1;fill-opacity:1;fill-rule:nonzero;stroke:none"
       d="m 2488.77,3358.54 c -21.7,14.46 -51.48,5.71 -73.17,-8.76 -21.69,-14.47 -40.23,-34.3 -64.53,-43.74 -45.65,-17.75 -105.48,3.28 -140.96,-30.49 -22.51,-21.42 -24.81,-56.59 -42.01,-82.48 -28.97,-43.6 -98.51,-59.98 -104.47,-111.99 -3.48,-30.33 20.52,-59.42 49.85,-67.93 29.33,-8.51 61.59,0.47 87.02,17.37 29.7,19.74 53.04,50.19 86.88,61.43 34.59,11.48 77.28,1.86 104.58,26.01 27.34,24.2 23.2,68.57 42.77,99.4 10.41,16.42 26.83,27.86 41.55,40.57 14.72,12.7 28.72,28.42 31.18,47.7 2.47,19.28 -5.44,52.17 -18.69,52.91" /><path
       id="path120"
       style="fill:#17282f;fill-opacity:1;fill-rule:nonzero;stroke:none"
       d="m 1925.29,1234.03 c 1.23,0.75 5.28,-3.29 9.06,-9.03 3.77,-5.74 5.88,-11.06 4.7,-11.89 -1.17,-0.83 -5.23,3.21 -9.05,9.03 -3.83,5.81 -5.94,11.14 -4.71,11.89" /><path
       id="path122"
       style="fill:#17282f;fill-opacity:1;fill-rule:nonzero;stroke:none"
       d="m 1882.43,1324.23 c 1.36,0.47 6.69,-9.45 11.9,-22.15 5.21,-12.7 8.39,-23.5 7.09,-24.14 -1.29,-0.62 -6.62,9.29 -11.9,22.16 -5.28,12.87 -8.45,23.67 -7.09,24.13" /><path
       id="path124"
       style="fill:#17282f;fill-opacity:1;fill-rule:nonzero;stroke:none"
       d="m 1859.25,1421.46 c 1.42,0.17 4.61,-10.63 7.12,-24.13 2.5,-13.51 3.4,-24.73 2,-25.08 -1.4,-0.34 -4.58,10.46 -7.12,24.13 -2.54,13.67 -3.44,24.89 -2,25.08" /><path
       id="path126"
       style="fill:#17282f;fill-opacity:1;fill-rule:nonzero;stroke:none"
       d="m 1855.73,1521.34 c 1.44,-0.11 2.45,-11.32 2.26,-25.05 -0.19,-13.74 -1.52,-24.92 -2.96,-24.98 -1.43,-0.07 -2.44,11.15 -2.25,25.05 0.19,13.9 1.52,25.08 2.95,24.98" /><path
       id="path128"
       style="fill:#17282f;fill-opacity:1;fill-rule:nonzero;stroke:none"
       d="m 1871.9,1619.98 c 1.38,-0.39 0.16,-11.59 -2.73,-25.02 -2.9,-13.42 -6.4,-24.13 -7.83,-23.9 -1.42,0.21 -0.2,11.41 2.74,25.01 2.93,13.59 6.43,24.29 7.82,23.91" /><path
       id="path130"
       style="fill:#17282f;fill-opacity:1;fill-rule:nonzero;stroke:none"
       d="m 1907.86,1713.17 c 1.27,-0.67 -2.24,-11.37 -7.85,-23.89 -5.62,-12.53 -11.27,-22.27 -12.62,-21.77 -1.34,0.51 2.17,11.2 7.87,23.9 5.68,12.69 11.33,22.43 12.6,21.76" /><path
       id="path132"
       style="fill:#17282f;fill-opacity:1;fill-rule:nonzero;stroke:none"
       d="m 1962.96,1796.51 c 1.11,-0.92 -4.62,-10.6 -12.82,-21.63 -8.17,-11.05 -15.87,-19.29 -16.92,-18.61 -1.35,0.9 4.47,10.52 12.73,21.69 8.28,11.15 15.9,19.46 17.01,18.55" /><path
       id="path134"
       style="fill:#17282f;fill-opacity:1;fill-rule:nonzero;stroke:none"
       d="m 2030.19,1870.58 c 1.02,-1.01 -5.86,-9.92 -15.37,-19.9 -9.51,-9.98 -18.07,-17.29 -19.14,-16.32 -1.06,0.97 5.82,9.87 15.37,19.9 9.54,10.03 18.12,17.34 19.14,16.32" /><path
       id="path136"
       style="fill:#17282f;fill-opacity:1;fill-rule:nonzero;stroke:none"
       d="m 2100.59,1941.69 c 1.04,-0.99 -5.99,-9.78 -15.7,-19.64 -9.71,-9.85 -18.4,-17.01 -19.42,-15.99 -1.01,1.01 6.01,9.81 15.7,19.65 9.69,9.82 18.39,16.98 19.42,15.98" /><path
       id="path138"
       style="fill:#17282f;fill-opacity:1;fill-rule:nonzero;stroke:none"
       d="m 2166.32,2017.1 c 1.15,-0.86 -5.05,-10.26 -13.85,-20.99 -8.81,-10.74 -16.81,-18.66 -17.88,-17.7 -1.08,0.96 5.12,10.36 13.84,20.99 8.73,10.63 16.74,18.56 17.89,17.7" /><path
       id="path140"
       style="fill:#17282f;fill-opacity:1;fill-rule:nonzero;stroke:none"
       d="m 2217.36,2102.93 c 1.31,-0.53 -1.98,-11.43 -8.4,-23.8 -6.4,-12.39 -13.32,-21.39 -14.52,-20.65 -1.25,0.77 3.6,10.85 9.89,23.04 6.32,12.17 11.69,21.98 13.03,21.41" /><path
       id="path142"
       style="fill:#17282f;fill-opacity:1;fill-rule:nonzero;stroke:none"
       d="m 2241.7,2199.57 c 1.41,-0.09 1.76,-11.48 -0.54,-25.25 -2.27,-13.78 -6.3,-24.43 -7.66,-24.06 -1.42,0.37 0.3,11.41 2.52,24.91 2.26,13.51 4.22,24.51 5.68,24.4" /><path
       id="path144"
       style="fill:#17282f;fill-opacity:1;fill-rule:nonzero;stroke:none"
       d="m 2234.28,2298.96 c 1.37,0.36 5.28,-10.34 7.41,-24.14 2.15,-13.8 1.68,-25.18 0.27,-25.26 -1.46,-0.09 -3.31,10.93 -5.42,24.46 -2.08,13.53 -3.68,24.59 -2.26,24.94" /><path
       id="path146"
       style="fill:#17282f;fill-opacity:1;fill-rule:nonzero;stroke:none"
       d="m 2194.99,2390.44 c 1.15,0.8 8.51,-7.91 15.09,-20.23 6.61,-12.3 9.83,-23.22 8.53,-23.75 -1.36,-0.56 -6.64,9.26 -13.12,21.29 -6.44,12.05 -11.72,21.87 -10.5,22.69" /><path
       id="path148"
       style="fill:#17282f;fill-opacity:1;fill-rule:nonzero;stroke:none"
       d="m 2125.21,2461.41 c 0.77,1.18 10.88,-4.14 21.6,-13.12 10.76,-8.96 17.76,-17.98 16.74,-18.94 -1.06,-1.02 -9.57,6.2 -20.08,14.95 -10.47,8.77 -19.07,15.89 -18.26,17.11" /><path
       id="path150"
       style="fill:#17282f;fill-opacity:1;fill-rule:nonzero;stroke:none"
       d="m 2034.31,2502 c 0.3,1.38 11.63,0 24.86,-4.54 13.24,-4.51 23.04,-10.35 22.44,-11.62 -0.62,-1.33 -11.18,2.29 -24.13,6.69 -12.93,4.45 -23.5,8.04 -23.17,9.47" /><path
       id="path152"
       style="fill:#17282f;fill-opacity:1;fill-rule:nonzero;stroke:none"
       d="m 1934.95,2506.52 c -0.25,1.38 10.76,4.49 24.74,5.2 13.99,0.74 25.26,-1.16 25.16,-2.56 -0.09,-1.47 -11.24,-1.91 -24.88,-2.64 -13.64,-0.69 -24.77,-1.45 -25.02,0" /><path
       id="path154"
       style="fill:#17282f;fill-opacity:1;fill-rule:nonzero;stroke:none"
       d="m 1842.7,2469.76 c -0.82,1.13 7.77,8.7 20.12,15.32 12.35,6.67 23.42,9.61 23.91,8.29 0.52,-1.37 -9.43,-6.39 -21.44,-12.87 -12.03,-6.44 -21.74,-11.95 -22.59,-10.74" /><path
       id="path156"
       style="fill:#17282f;fill-opacity:1;fill-rule:nonzero;stroke:none"
       d="m 1774.04,2397.86 c -1.21,0.72 3.66,11.06 12.27,22.11 8.57,11.07 17.39,18.35 18.38,17.36 1.05,-1.03 -5.9,-9.75 -14.27,-20.56 -8.4,-10.77 -15.12,-19.67 -16.38,-18.91" /><path
       id="path158"
       style="fill:#17282f;fill-opacity:1;fill-rule:nonzero;stroke:none"
       d="m 1740.35,2304.43 c -1.4,0.13 -1.39,11.6 1.94,25.23 3.29,13.63 8.48,23.84 9.78,23.33 1.38,-0.53 -1.52,-11.3 -4.71,-24.56 -3.25,-13.25 -5.55,-24.15 -7.01,-24" /><path
       id="path160"
       style="fill:#17282f;fill-opacity:1;fill-rule:nonzero;stroke:none"
       d="m 1752.22,2205.97 c -1.3,-0.51 -6.47,9.7 -9.78,23.32 -3.34,13.62 -3.4,25.07 -2.01,25.21 1.46,0.17 3.82,-10.72 7.08,-23.97 3.21,-13.26 6.09,-24.04 4.71,-24.56" /><path
       id="path162"
       style="fill:#17282f;fill-opacity:1;fill-rule:nonzero;stroke:none"
       d="m 1802.93,2120.29 c -1.07,-0.93 -9.35,6.87 -17.5,18.2 -8.17,11.33 -12.87,21.71 -11.64,22.42 1.26,0.73 7.86,-8.27 15.87,-19.37 7.99,-11.12 14.38,-20.3 13.27,-21.25" /><path
       id="path164"
       style="fill:#17282f;fill-opacity:1;fill-rule:nonzero;stroke:none"
       d="m 1876.56,2052.86 c -0.81,-1.16 -10.71,4.39 -21.53,13.14 -10.85,8.74 -18.34,17.27 -17.37,18.31 0.99,1.07 9.94,-5.64 20.64,-14.25 10.67,-8.64 19.1,-16 18.26,-17.2" /><path
       id="path166"
       style="fill:#17282f;fill-opacity:1;fill-rule:nonzero;stroke:none"
       d="m 1963.25,2003.16 c -0.57,-1.32 -11.08,2.72 -23.48,9.02 -12.39,6.3 -21.84,12.42 -21.12,13.66 0.73,1.24 11.24,-2.79 23.48,-9.02 12.24,-6.22 21.7,-12.34 21.12,-13.66" /><path
       id="path168"
       style="fill:#17282f;fill-opacity:1;fill-rule:nonzero;stroke:none"
       d="m 2058.41,1972.87 c -0.25,-1.39 -11.57,-0.52 -25.05,2.96 -13.5,3.45 -23.85,8.11 -23.4,9.46 0.46,1.38 11.39,-1.01 24.69,-4.42 13.28,-3.43 24.02,-6.56 23.76,-8" /><path
       id="path170"
       style="fill:#17282f;fill-opacity:1;fill-rule:nonzero;stroke:none"
       d="m 2158.01,1967.74 c 0.16,-1.41 -10.97,-3.79 -24.92,-4.05 -13.94,-0.28 -25.15,1.65 -25.05,3.05 0.09,1.47 11.26,1.89 24.96,2.16 13.68,0.24 24.85,0.29 25.01,-1.16" /><path
       id="path172"
       style="fill:#17282f;fill-opacity:1;fill-rule:nonzero;stroke:none"
       d="m 2254.26,1993.47 c 0.61,-1.27 -9.14,-7.16 -22.29,-11.87 -13.13,-4.74 -24.41,-6.39 -24.75,-5.02 -0.36,1.41 10.12,5.27 22.99,9.92 12.88,4.62 23.43,8.3 24.05,6.97" /><path
       id="path174"
       style="fill:#17282f;fill-opacity:1;fill-rule:nonzero;stroke:none"
       d="m 2337.69,2048.1 c 0.94,-1.05 -6.64,-9.52 -17.71,-18 -11.05,-8.5 -21.21,-13.63 -21.97,-12.43 -0.79,1.22 7.94,8.2 18.8,16.57 10.88,8.33 19.89,14.94 20.88,13.86" /><path
       id="path176"
       style="fill:#17282f;fill-opacity:1;fill-rule:nonzero;stroke:none"
       d="m 2402.79,2123.76 c 1.19,-0.76 -3.91,-10.92 -12.29,-22.06 -8.36,-11.15 -16.7,-18.88 -17.75,-17.95 -1.11,0.97 5.36,10.1 13.58,21.08 8.25,10.96 15.22,19.71 16.46,18.93" /><path
       id="path178"
       style="fill:#17282f;fill-opacity:1;fill-rule:nonzero;stroke:none"
       d="m 2446.09,2213.69 c 1.35,-0.42 -0.94,-11.56 -6.18,-24.48 -5.2,-12.93 -11.27,-22.54 -12.53,-21.91 -1.31,0.65 2.58,11.14 7.71,23.86 5.15,12.71 9.61,22.97 11,22.53" /><path
       id="path180"
       style="fill:#17282f;fill-opacity:1;fill-rule:nonzero;stroke:none"
       d="m 2465.45,2311.65 c 1.42,-0.09 1.79,-11.43 -0.11,-25.22 -1.86,-13.79 -5.29,-24.62 -6.68,-24.33 -1.42,0.3 -0.32,11.43 1.53,25.04 1.86,13.59 3.81,24.62 5.26,24.51" /><path
       id="path182"
       style="fill:#17282f;fill-opacity:1;fill-rule:nonzero;stroke:none"
       d="m 2462.87,2411.55 c 1.43,0.2 3.46,-10.88 4.53,-24.74 1.08,-13.86 0.78,-25.12 -0.66,-25.14 -1.44,-0.03 -3.47,11.05 -4.53,24.74 -1.06,13.69 -0.76,24.95 0.66,25.14" /><path
       id="path184"
       style="fill:#17282f;fill-opacity:1;fill-rule:nonzero;stroke:none"
       d="m 2441.16,2509.16 c 1.37,0.45 5.42,-10.07 9.06,-23.48 3.62,-13.43 5.43,-24.54 4.02,-24.85 -1.41,-0.3 -5.46,10.21 -9.05,23.49 -3.6,13.27 -5.39,24.39 -4.03,24.84" /><path
       id="path186"
       style="fill:#17282f;fill-opacity:1;fill-rule:nonzero;stroke:none"
       d="m 2402.87,2601.57 c 1.26,0.64 7.31,-8.9 13.32,-21.4 5.62,-12.71 9.09,-23.45 7.75,-24 -1.33,-0.54 -6.92,9.22 -12.46,21.8 -5.97,12.39 -9.9,22.92 -8.61,23.6" /><path
       id="path188"
       style="fill:#17282f;fill-opacity:1;fill-rule:nonzero;stroke:none"
       d="m 2353.67,2688.68 c 1.24,0.74 7.91,-8.34 14.91,-20.26 7,-11.94 11.66,-22.18 10.41,-22.89 -1.25,-0.72 -7.92,8.35 -14.91,20.26 -6.98,11.91 -11.64,22.16 -10.41,22.89" /><path
       id="path190"
       style="fill:#17282f;fill-opacity:1;fill-rule:nonzero;stroke:none"
       d="m 2304.03,2775.55 c 1.27,0.67 7.73,-8.57 14.39,-20.63 6.68,-12.06 11.07,-22.42 9.83,-23.14 -1.24,-0.73 -7.68,8.51 -14.39,20.64 -6.7,12.11 -11.11,22.48 -9.83,23.13" /><path
       id="path192"
       style="fill:#17282f;fill-opacity:1;fill-rule:nonzero;stroke:none"
       d="m 2264.97,2867.51 c 1.38,0.41 6.38,-9.67 11.16,-22.51 4.79,-12.85 7.6,-23.74 6.28,-24.32 -1.31,-0.58 -6.31,9.49 -11.16,22.51 -4.85,13.02 -7.65,23.91 -6.28,24.32" /><path
       id="path194"
       style="fill:#17282f;fill-opacity:1;fill-rule:nonzero;stroke:none"
       d="m 2247.95,2965.85 c 1.46,0.05 2.98,-11.03 4.44,-24.67 1.44,-13.63 2.29,-24.79 0.86,-25.05 -1.39,-0.26 -4.58,10.65 -6.04,24.5 -1.48,13.85 -0.67,25.18 0.74,25.22" /><path
       id="path196"
       style="fill:#17282f;fill-opacity:1;fill-rule:nonzero;stroke:none"
       d="m 2256.21,3065.35 c 1.43,-0.31 0.17,-11.43 -1.8,-25.01 -2,-13.57 -3.97,-24.59 -5.43,-24.48 -1.41,0.1 -1.75,11.45 0.28,25.24 2,13.78 5.57,24.57 6.95,24.25" /><path
       id="path198"
       style="fill:#17282f;fill-opacity:1;fill-rule:nonzero;stroke:none"
       d="m 2288.81,3159.71 c 1.3,-0.66 -2.7,-11.1 -7.97,-23.75 -5.3,-12.66 -9.92,-22.84 -11.31,-22.38 -1.34,0.45 1.12,11.53 6.5,24.38 5.36,12.86 11.52,22.4 12.78,21.75" /><path
       id="path200"
       style="fill:#17282f;fill-opacity:1;fill-rule:nonzero;stroke:none"
       d="m 2344.56,3242.51 c 1.09,-0.98 -5.51,-10.01 -13.9,-20.86 -8.41,-10.83 -15.5,-19.48 -16.72,-18.68 -1.19,0.78 4.05,10.86 12.6,21.87 8.52,11.02 16.97,18.62 18.02,17.67" /><path
       id="path202"
       style="fill:#17282f;fill-opacity:1;fill-rule:nonzero;stroke:none"
       d="m 2419.62,3308.32 c 0.8,-1.22 -7.84,-8.33 -18.69,-16.72 -10.87,-8.37 -19.95,-14.92 -20.92,-13.83 -0.95,1.05 6.7,9.46 17.74,17.95 11.02,8.52 21.09,13.78 21.87,12.6" /><path
       id="path204"
       style="fill:#17282f;fill-opacity:1;fill-rule:nonzero;stroke:none"
       d="m 2508.63,3353.58 c 0.48,-1.38 -9.65,-6.13 -22.23,-11.59 -12.6,-5.44 -23.01,-9.54 -23.68,-8.25 -0.66,1.25 8.82,7.51 21.61,13.03 12.78,5.54 23.84,8.15 24.3,6.81" /><path
       id="path206"
       style="fill:#17282f;fill-opacity:1;fill-rule:nonzero;stroke:none"
       d="m 2581.15,3371.92 c 0.21,-1.42 -5.08,-3.59 -11.82,-4.83 -6.74,-1.24 -12.46,-1.11 -12.78,0.3 -0.31,1.4 4.99,3.56 11.83,4.82 6.85,1.27 12.57,1.13 12.77,-0.29" /><path
       id="path208"
       style="fill:#f03d5f;fill-opacity:1;fill-rule:nonzero;stroke:none"
       d="m 2785.23,3666.37 c 0,0 117.45,83.77 279.99,29.67 0,0 13.36,-134.56 -117,-241.58" /><path
       id="path210"
       style="fill:#f03d5f;fill-opacity:1;fill-rule:nonzero;stroke:none"
       d="m 2414.96,3417.74 c 5,-7.5 132.45,-212.43 132.45,-212.43 l 382.75,235.8 c 66.82,41.17 84.1,130.71 37.38,193.78 -42.61,57.52 -122.9,71.37 -182.31,31.48 l -370.27,-248.63" /><path
       id="path212"
       style="fill:#17282f;fill-opacity:1;fill-rule:nonzero;stroke:none"
       d="m 2547.41,3205.31 -8.57,-144.17 c 0,0 248.04,120.11 186.13,253.56 l -177.56,-109.39" /><path
       id="path214"
       style="fill:#17282f;fill-opacity:1;fill-rule:nonzero;stroke:none"
       d="m 2592.25,3536.78 c 0,0 -168.16,74.2 -306.65,-34.62 l 129.36,-84.42 177.29,119.04" /><path
       id="path216"
       style="fill:#17282f;fill-opacity:1;fill-rule:nonzero;stroke:none"
       d="m 2591.07,3417.63 -239.36,-149.72 c 0,0 8.21,-25.75 14.66,-23.6 5.39,1.8 185.24,108 243.56,142.48 9.54,5.64 11.73,18.41 4.71,26.97 -5.77,7.04 -15.86,8.69 -23.57,3.87" /><path
       id="path218"
       style="fill:#fafaf9;fill-opacity:1;fill-rule:nonzero;stroke:none"
       d="m 2888.16,3531.1 c 0,-42.32 -34.31,-76.64 -76.63,-76.64 -42.33,0 -76.64,34.32 -76.64,76.64 0,42.32 34.31,76.63 76.64,76.63 42.32,0 76.63,-34.31 76.63,-76.63" /><path
       id="path220"
       style="fill:#17282f;fill-opacity:1;fill-rule:nonzero;stroke:none"
       d="m 2888.16,3531.1 c -0.6,-0.04 -0.28,6.83 -3.38,18.46 -3.07,11.42 -10.81,28.13 -28.01,40.99 -8.52,6.28 -19.2,11.6 -31.5,13.7 -12.21,2.03 -25.97,1.59 -39.03,-3.43 -13.06,-4.72 -25.52,-13.63 -34.37,-25.93 -9.1,-12.14 -14.22,-27.72 -14.38,-43.78 0.16,-16.06 5.27,-31.65 14.38,-43.79 8.85,-12.31 21.31,-21.22 34.37,-25.94 13.06,-5.02 26.82,-5.45 39.04,-3.43 12.29,2.1 22.98,7.43 31.5,13.7 17.19,12.87 24.93,29.58 28,40.99 3.1,11.63 2.78,18.5 3.38,18.46 0.17,0 0.27,-1.68 0.27,-4.92 0.07,-3.22 -0.33,-8.02 -1.69,-14.03 -2.54,-11.86 -9.99,-29.53 -27.73,-43.42 -8.78,-6.79 -19.96,-12.6 -32.94,-15.03 -12.89,-2.33 -27.49,-2.04 -41.47,3.18 -13.96,4.9 -27.33,14.32 -36.84,27.42 -9.79,12.93 -15.34,29.63 -15.47,46.81 0.14,17.18 5.69,33.87 15.47,46.8 9.52,13.11 22.88,22.51 36.84,27.42 13.98,5.21 28.58,5.51 41.47,3.17 12.98,-2.42 24.15,-8.24 32.94,-15.02 17.73,-13.89 25.19,-31.56 27.73,-43.42 1.36,-6.01 1.76,-10.82 1.69,-14.04 0,-3.24 -0.1,-4.92 -0.27,-4.92" /><path
       id="path222"
       style="fill:#17282f;fill-opacity:1;fill-rule:nonzero;stroke:none"
       d="m 2981.46,3480.03 c -0.99,-0.1 -2.14,14.87 -8.01,38.17 -2.85,11.66 -7.34,25.25 -13.33,39.91 -6.23,14.57 -14.11,30.14 -23.95,45.55 -10,15.31 -20.95,28.9 -31.66,40.58 -10.9,11.49 -21.44,21.17 -30.9,28.57 -18.81,14.93 -31.99,22.15 -31.49,23.01 0.18,0.32 3.56,-1.3 9.54,-4.51 3.03,-1.56 6.65,-3.59 10.66,-6.3 4.02,-2.66 8.77,-5.49 13.53,-9.28 9.88,-7.12 20.85,-16.68 32.14,-28.19 11.09,-11.7 22.37,-25.46 32.56,-41.05 10.02,-15.7 17.92,-31.64 24.01,-46.56 5.84,-15.02 10.04,-28.95 12.47,-40.89 1.5,-5.9 2.12,-11.39 2.88,-16.16 0.82,-4.75 1.19,-8.9 1.37,-12.29 0.46,-6.79 0.54,-10.53 0.18,-10.56" /><path
       id="path224"
       style="fill:#17282f;fill-opacity:1;fill-rule:nonzero;stroke:none"
       d="m 2960.81,3469 c -0.99,-0.11 -2.19,15.13 -8.16,38.82 -2.9,11.87 -7.46,25.7 -13.53,40.63 -6.32,14.82 -14.29,30.68 -24.25,46.39 -10.13,15.61 -21.23,29.48 -32.06,41.41 -11.04,11.75 -21.7,21.66 -31.27,29.24 -19.06,15.31 -32.39,22.76 -31.88,23.62 0.18,0.31 3.59,-1.36 9.66,-4.68 3.06,-1.61 6.73,-3.72 10.78,-6.49 4.07,-2.74 8.88,-5.65 13.69,-9.54 10,-7.32 21.1,-17.1 32.52,-28.86 11.22,-11.95 22.63,-25.99 32.94,-41.88 10.15,-16 18.13,-32.23 24.32,-47.4 5.92,-15.29 10.18,-29.46 12.66,-41.6 1.53,-6 2.17,-11.58 2.96,-16.42 0.83,-4.84 1.21,-9.06 1.4,-12.51 0.49,-6.89 0.58,-10.7 0.22,-10.73" /><path
       id="path238"
       style="fill:#f03d5f;fill-opacity:1;fill-rule:nonzero;stroke:none"
       d="m 3895.84,1396.88 h -69.7 v 225.16 h 69.7 v -225.16" /><path
       id="path240"
       style="fill:#f03d5f;fill-opacity:1;fill-rule:nonzero;stroke:none"
       d="m 4024.12,1396.88 h -69.69 v 317.84 h 69.69 v -317.84" /><path
       id="path242"
       style="fill:#f03d5f;fill-opacity:1;fill-rule:nonzero;stroke:none"
       d="m 4160.67,1396.88 h -69.7 v 361.11 h 69.7 v -361.11" /><path
       id="path244"
       style="fill:#f03d5f;fill-opacity:1;fill-rule:nonzero;stroke:none"
       d="m 4297.21,1396.88 h -69.7 v 406.77 h 69.7 v -406.77" /><path
       id="path246"
       style="fill:#17282f;fill-opacity:1;fill-rule:nonzero;stroke:none"
       d="m 1476.64,1329.92 c 0,0 5.71,-0.41 14.98,-4.69 9.07,-4.23 21.92,-13.45 29.85,-30.23 3.86,-8.29 6.5,-18.32 6.1,-29.18 -0.46,-10.78 -3.34,-22.45 -10.04,-32.72 -3.2,-5.22 -7.35,-10 -12.19,-14.18 -4.79,-4.25 -10.36,-7.83 -16.48,-10.45 -12.13,-5.52 -26.53,-6.96 -40.35,-3.99 -13.76,3.21 -26.17,10.66 -34.79,20.84 -4.42,4.99 -7.92,10.6 -10.44,16.49 -2.59,5.84 -4.3,11.95 -4.96,18.03 -1.68,12.16 0.7,23.94 4.9,33.87 4.27,9.99 10.94,17.94 17.97,23.79 14.35,11.78 29.9,14.62 39.9,14.57 10.21,-0.08 15.55,-2.15 15.55,-2.15 -0.07,-0.45 -5.54,1.09 -15.51,0.74 -9.79,-0.37 -24.72,-3.57 -38.28,-15.13 -6.65,-5.74 -12.91,-13.43 -16.87,-23.01 -3.87,-9.52 -6.03,-20.75 -4.34,-32.26 0.67,-5.75 2.33,-11.53 4.82,-17.04 2.41,-5.57 5.75,-10.87 9.94,-15.56 8.2,-9.6 19.91,-16.59 32.91,-19.63 13.06,-2.8 26.62,-1.48 38.12,3.7 5.8,2.45 11.09,5.82 15.63,9.82 4.61,3.92 8.58,8.43 11.64,13.36 6.44,9.67 9.29,20.75 9.85,31.02 0.52,10.34 -1.86,19.97 -5.41,28 -7.33,16.25 -19.47,25.52 -28.16,30.03 -8.86,4.58 -14.47,5.52 -14.34,5.96" /><path
       id="path248"
       style="fill:#17282f;fill-opacity:1;fill-rule:nonzero;stroke:none"
       d="m 1527.45,1397.73 c -0.04,-0.02 -0.08,0.72 -0.13,2.22 -0.04,1.66 -0.1,3.88 -0.16,6.76 -0.09,6.19 -0.21,15.12 -0.37,26.7 l 0.45,-0.56 c -14.78,3.23 -34.2,7.47 -57.7,12.59 l 1.03,0.51 c -4.6,-9.78 -9.71,-20.66 -15.18,-32.29 l -0.27,-0.59 -0.65,-0.03 c -11.99,-0.51 -24.74,-2.57 -37.62,-6.67 l -0.69,-0.22 -0.51,0.51 c -7.91,7.83 -16.47,16.3 -25.37,25.12 l 1.6,-0.18 c -15.69,-9.99 -32.33,-20.59 -49.81,-31.72 l 0.58,1.69 c 3.72,-10.4 7.83,-21.87 12.04,-33.62 l 0.31,-0.85 -0.62,-0.67 c -8.05,-8.7 -15.77,-19.34 -21.9,-31.18 l -0.43,-0.84 -0.95,-0.01 c -11.06,-0.04 -23.27,-0.08 -35.69,-0.13 l 1.58,1.27 c -4.04,-18.11 -8.39,-37.64 -12.86,-57.66 l -0.92,1.91 c 10.04,-4.76 21.07,-9.98 32.25,-15.28 l 0.94,-0.44 0.04,-1.06 c 0.47,-11.91 2.56,-24.89 6.56,-37.47 l 0.32,-1.02 -0.75,-0.75 c -7.89,-7.93 -16.49,-16.58 -25.18,-25.31 l 0.24,2.21 c 10.01,-15.79 20.75,-32.73 31.63,-49.89 l -2.13,0.74 c 10.62,3.79 22.09,7.87 33.63,11.98 l 1.04,0.37 0.81,-0.75 c 8.86,-8.21 19.47,-15.86 31.05,-21.88 l 0.02,-0.01 v 0 c 0.44,-0.72 -0.96,1.61 0.99,-1.62 v -0.03 -0.07 -0.14 -0.28 -0.56 -1.12 l 0.01,-2.25 0.01,-4.49 0.02,-8.95 c 0.01,-5.96 0.02,-11.88 0.03,-17.79 l -1.41,1.77 c 19.47,-4.38 38.69,-8.69 57.63,-12.94 l -2.02,-0.99 c 5.16,10.85 10.27,21.59 15.32,32.24 l 0.47,0.97 1.08,0.04 c 12.86,0.49 25.49,2.73 37.47,6.5 l 1.02,0.32 0.76,-0.75 c 8.55,-8.53 16.96,-16.93 25.28,-25.21 l -2.15,0.24 c 17.04,10.77 33.69,21.3 49.92,31.55 l -0.68,-1.97 c -4.05,11.41 -8.03,22.63 -11.93,33.65 l -0.33,0.93 0.67,0.72 c 8.85,9.54 16.21,20.07 21.97,31.1 l 0.45,0.84 0.95,0.01 c 12.24,0 24.1,0.01 35.68,0.01 l -1.47,-1.18 c 4.59,20.27 8.93,39.4 13.05,57.61 l 0.76,-1.56 c -11.32,5.41 -21.95,10.49 -32.19,15.39 l -0.72,0.34 -0.03,0.79 c -0.51,13.61 -2.87,26.14 -6.45,37.63 l -0.21,0.69 0.51,0.51 c 9.18,9.16 17.45,17.42 25.27,25.21 l -0.15,-1.33 c -12.15,19.38 -22.52,35.89 -31.39,50.03 l 0.96,-0.33 c -13.46,-4.7 -24.5,-8.54 -33.7,-11.76 l -0.34,-0.11 -0.26,0.24 c -9.48,8.86 -17.54,14.24 -22.92,17.66 -2.64,1.59 -4.66,2.8 -6.14,3.7 -1.42,0.81 -2.06,1.22 -2.02,1.24 0.04,0.03 0.79,-0.3 2.17,-0.98 1.41,-0.72 3.54,-1.82 6.3,-3.46 5.51,-3.26 13.73,-8.51 23.41,-17.3 l -0.6,0.12 c 9.16,3.33 20.15,7.32 33.56,12.18 l 0.61,0.23 0.35,-0.56 c 8.99,-14.05 19.5,-30.48 31.83,-49.75 l 0.46,-0.73 -0.61,-0.6 c -7.76,-7.85 -15.97,-16.16 -25.1,-25.39 l 0.29,1.21 c 3.71,-11.66 6.19,-24.39 6.78,-38.25 l -0.75,1.13 c 10.27,-4.85 20.93,-9.88 32.27,-15.23 l 1.01,-0.48 -0.24,-1.09 c -4.05,-18.23 -8.31,-37.37 -12.82,-57.65 l -0.26,-1.19 h -1.21 c -11.59,-0.04 -23.45,-0.09 -35.68,-0.14 l 1.39,0.85 c -5.86,-11.3 -13.35,-22.09 -22.38,-31.86 l 0.34,1.65 c 3.93,-11 7.94,-22.21 12.01,-33.62 l 0.45,-1.26 -1.13,-0.71 c -16.21,-10.3 -32.84,-20.85 -49.85,-31.66 l -1.17,-0.75 -0.99,0.98 c -8.32,8.27 -16.76,16.66 -25.31,25.17 l 1.76,-0.43 c -12.27,-3.89 -25.21,-6.19 -38.4,-6.7 l 1.55,1.01 c -5.05,-10.64 -10.15,-21.39 -15.3,-32.24 l -0.61,-1.3 -1.41,0.31 c -18.94,4.25 -38.16,8.55 -57.64,12.91 l -1.41,0.32 -0.01,1.45 c -0.01,5.91 -0.02,11.84 -0.04,17.79 l -0.01,8.96 -0.01,4.48 -0.01,2.25 v 1.12 0.57 0.27 0.15 0.06 0.04 c 1.95,-3.21 0.53,-0.89 0.97,-1.61 l -0.01,0.01 -0.02,0.01 c -11.88,6.16 -22.76,14 -31.84,22.44 l 1.84,-0.38 c -11.55,-4.11 -23.01,-8.18 -33.64,-11.96 l -1.36,-0.49 -0.77,1.22 c -10.87,17.17 -21.59,34.1 -31.59,49.91 l -0.76,1.2 1,1.01 c 8.7,8.73 17.31,17.36 25.21,25.28 l -0.43,-1.76 c -4.07,12.89 -6.2,26.19 -6.65,38.38 l 0.98,-1.48 c -11.16,5.31 -22.18,10.56 -32.21,15.34 l -1.23,0.58 0.3,1.32 c 4.51,20.01 8.91,39.52 13,57.61 l 0.28,1.27 h 1.3 c 12.42,0.01 24.62,0.02 35.68,0.02 l -1.39,-0.84 c 6.3,12.09 14.22,22.93 22.47,31.78 l -0.31,-1.52 c -4.16,11.76 -8.23,23.24 -11.91,33.66 l -0.38,1.08 0.96,0.61 c 17.53,11.05 34.23,21.57 49.97,31.49 l 0.87,0.56 0.73,-0.73 c 8.86,-8.87 17.37,-17.4 25.23,-25.27 l -1.2,0.3 c 13.12,4.09 26.08,6.1 38.26,6.53 l -0.92,-0.62 c 5.56,11.6 10.76,22.44 15.43,32.18 l 0.33,0.67 0.71,-0.17 c 23.44,-5.39 42.82,-9.86 57.56,-13.25 l 0.46,-0.11 -0.01,-0.46 c -0.11,-11.48 -0.19,-20.33 -0.25,-26.47 -0.05,-2.92 -0.09,-5.17 -0.12,-6.85 -0.04,-1.54 -0.08,-2.34 -0.13,-2.37" /><path
       id="path250"
       style="fill:#f03d5f;fill-opacity:1;fill-rule:evenodd;stroke:none"
       d="m 1362.45,1771.35 c -37.74,8.47 -75.21,-15.26 -83.68,-53.02 -8.47,-37.75 15.28,-75.21 53.02,-83.68 37.75,-8.46 75.21,15.27 83.68,53.02 8.47,37.75 -15.26,75.21 -53.02,83.68 m 56.18,74.98 c 12.79,-6.67 24.46,-14.94 34.8,-24.51 l 37.18,13.23 34.94,-55.15 -27.84,-27.97 c 4.24,-13.44 6.75,-27.53 7.31,-41.95 l 35.64,-16.92 -14.31,-63.72 -39.44,-0.09 c -6.66,-12.79 -14.95,-24.46 -24.53,-34.79 l 13.24,-37.19 -55.15,-34.94 -27.97,27.84 c -13.44,-4.24 -27.53,-6.74 -41.95,-7.3 l -16.92,-35.64 -63.72,14.29 -0.08,39.46 c -12.8,6.65 -24.46,14.94 -34.8,24.51 l -37.19,-13.23 -34.95,55.16 27.86,27.96 c -4.24,13.44 -6.74,27.53 -7.31,41.95 l -35.63,16.92 14.29,63.72 39.45,0.08 c 6.66,12.79 14.95,24.46 24.52,34.8 l -13.24,37.19 55.16,34.94 27.97,-27.85 c 13.44,4.24 27.52,6.75 41.94,7.31 l 16.92,35.63 63.72,-14.29 0.09,-39.45" /><path
       id="path252"
       style="fill:#fbcbd7;fill-opacity:1;fill-rule:nonzero;stroke:none"
       d="m 1333.63,1507.23 -63.72,14.29 -0.08,39.46 c -12.8,6.65 -24.46,14.94 -34.8,24.51 l -37.19,-13.23 -34.95,55.16 27.86,27.96 v 0 c -4.24,13.44 -6.74,27.53 -7.31,41.95 l -35.63,16.92 14.29,63.72 39.45,0.08 c 6.66,12.79 14.95,24.46 24.52,34.8 v 0 0 l -13.24,37.19 55.16,34.94 27.97,-27.85 c 13.44,4.24 27.52,6.75 41.94,7.31 l 16.92,35.63 63.72,-14.29 0.09,-39.45 c 12.79,-6.67 24.46,-14.94 34.8,-24.51 l 37.18,13.23 34.94,-55.15 -27.84,-27.97 v 0 c 4.24,-13.44 6.75,-27.53 7.31,-41.95 l 35.64,-16.92 -14.31,-63.72 -39.44,-0.09 c -6.66,-12.79 -14.95,-24.46 -24.53,-34.79 v 0 0 l 13.24,-37.19 -55.15,-34.94 -27.97,27.84 c -13.44,-4.24 -27.53,-6.74 -41.95,-7.3 l -16.92,-35.64 m -56.57,195.71 c 0,-32.06 22.15,-60.98 54.73,-68.29 5.16,-1.16 10.32,-1.71 15.4,-1.71 32.06,0 60.97,22.14 68.28,54.73 1.16,5.16 1.71,10.32 1.71,15.39 0.01,32.06 -22.13,60.98 -54.73,68.29 -5.16,1.16 -10.32,1.71 -15.39,1.71 -32.06,0 -60.98,-22.13 -68.29,-54.73 -1.16,-5.16 -1.71,-10.31 -1.71,-15.39" /><path
       id="path254"
       style="fill:#f03d5f;fill-opacity:1;fill-rule:evenodd;stroke:none"
       d="m 1155.53,1427.34 c -21.97,4.93 -43.79,-8.89 -48.72,-30.87 -4.93,-21.97 8.9,-43.78 30.87,-48.71 21.98,-4.93 43.78,8.88 48.71,30.87 4.93,21.97 -8.88,43.78 -30.86,48.71 m 32.7,43.64 c 7.44,-3.88 14.24,-8.69 20.26,-14.27 l 21.64,7.71 20.35,-32.11 -16.22,-16.28 c 2.47,-7.82 3.93,-16.03 4.26,-24.41 l 20.74,-9.86 -8.32,-37.09 -22.96,-0.06 c -3.88,-7.44 -8.71,-14.24 -14.28,-20.25 l 7.71,-21.65 -32.11,-20.34 -16.29,16.21 c -7.82,-2.47 -16.02,-3.92 -24.41,-4.25 l -9.85,-20.74 -37.09,8.31 -0.05,22.97 c -7.45,3.87 -14.24,8.7 -20.26,14.27 l -21.65,-7.7 -20.34,32.11 16.21,16.28 c -2.47,7.82 -3.92,16.02 -4.25,24.41 l -20.74,9.85 8.31,37.09 22.97,0.05 c 3.87,7.45 8.7,14.25 14.27,20.27 l -7.7,21.65 32.1,20.34 16.29,-16.22 c 7.82,2.47 16.02,3.93 24.42,4.26 l 9.85,20.74 37.09,-8.32 0.05,-22.97" /><path
       id="path256"
       style="fill:#f57797;fill-opacity:1;fill-rule:nonzero;stroke:none"
       d="m 1138.75,1273.59 -37.09,8.31 -0.05,22.97 c -7.45,3.87 -14.24,8.7 -20.26,14.27 l -21.65,-7.7 -20.34,32.11 16.21,16.28 v 0 c -2.47,7.82 -3.92,16.02 -4.25,24.41 l -20.74,9.85 8.31,37.09 22.97,0.05 c 3.87,7.45 8.7,14.25 14.27,20.27 v 0 0 l -7.7,21.65 32.1,20.34 16.29,-16.22 c 7.82,2.47 16.02,3.93 24.42,4.26 l 9.85,20.74 37.09,-8.32 0.05,-22.97 c 7.44,-3.88 14.24,-8.69 20.26,-14.27 l 21.64,7.71 20.35,-32.11 -16.22,-16.28 v 0 c 2.47,-7.82 3.93,-16.03 4.26,-24.41 l 20.74,-9.86 -8.32,-37.09 -22.96,-0.06 c -3.88,-7.44 -8.71,-14.24 -14.28,-20.25 v 0 0 l 7.71,-21.65 -32.11,-20.34 -16.29,16.21 c -7.82,-2.47 -16.02,-3.92 -24.41,-4.25 l -9.85,-20.74 m -32.93,113.92 c -0.01,-18.66 12.89,-35.5 31.86,-39.75 3,-0.68 6.01,-1 8.96,-1 18.67,0 35.5,12.89 39.75,31.87 0.68,3 1,6 1,8.96 0,18.66 -12.89,35.49 -31.86,39.75 -3.01,0.67 -6.01,1 -8.97,1 -18.66,0 -35.49,-12.9 -39.75,-31.87 -0.67,-3.01 -0.99,-6.01 -0.99,-8.96" /><path
       id="path258"
       style="fill:#17282f;fill-opacity:1;fill-rule:nonzero;stroke:none"
       d="m 3396.78,1838.99 c 42.09,10.93 73.35,54.04 70.64,97.44 -1.22,19.57 -8.49,38.62 -7.66,58.21 1.3,30.4 21.48,56.11 36.66,82.48 15.18,26.37 25.37,61.16 7.67,85.92 -11.48,16.06 -31.74,23.29 -45.65,37.31 -13.61,13.71 -20.07,32.72 -27.36,50.62 -7.29,17.9 -16.74,36.35 -33.53,45.91 -16.79,9.56 -42.54,5.32 -49.35,-12.76" /><path
       id="path260"
       style="fill:#17282f;fill-opacity:1;fill-rule:nonzero;stroke:none"
       d="m 3215.12,2332.28 c 29.95,19.01 37.19,63.12 20.96,94.68 -16.24,31.54 -50.69,50.7 -85.72,56.36 -50.7,8.18 -104.91,-9.79 -140.69,-46.63 -19.34,-19.9 -35,-45.88 -61.21,-55 -23.05,-8.02 -48.54,-0.78 -72.73,-3.91 -32.44,-4.2 -60.23,-27.26 -76.86,-55.42 -16.63,-28.16 -23.49,-61 -27.33,-93.47 -3.53,-29.81 -5.85,-62.52 -26.54,-84.28 -20.16,-21.21 -52.02,-25.71 -77.1,-40.8 -47.18,-28.39 -62.47,-98.72 -31.34,-144.14 9.93,-14.48 24.17,-27.76 25.33,-45.28 1.05,-16 -9.29,-30.25 -14.13,-45.53 -12.46,-39.34 19.74,-86.08 60.94,-88.45 20.8,-1.19 43.09,6.92 61.74,-2.38 18.52,-9.24 25.41,-31.58 37.26,-48.55 23.3,-33.38 72.05,-45.97 108.6,-28.05 15.3,7.51 29.75,19.89 46.76,18.75 16.96,-1.14 30.32,-15.64 47.02,-18.87 21.86,-4.22 42.61,11.88 55.61,29.95 12.98,18.08 22.05,39.37 38.68,54.16 21.78,19.38 52.38,24.16 79.94,33.66 60.84,20.94 111.67,69.22 135.72,128.89 24.05,59.67 20.92,129.71 -8.38,186.99" /><path
       id="path262"
       style="fill:#f8a58d;fill-opacity:1;fill-rule:nonzero;stroke:none"
       d="m 3280.92,2292.94 c 24.72,-2.67 43.28,-23.81 42.74,-48.67 l -28.57,-646.72 c -1.19,-76.37 -112.84,-119.29 -194.62,-117.39 -82.59,1.91 -85.24,42.42 -86.28,115.09 -1.73,121.39 -1.58,166.97 -1.62,166.28 0,0 -104.32,17.56 -125.63,153.76 -10.61,67.73 -6.96,178.74 -1.04,269.47 5.32,81.66 59.66,181.76 141.04,172.97 l 253.98,-64.79" /><path
       id="path264"
       style="fill:#17282f;fill-opacity:1;fill-rule:nonzero;stroke:none"
       d="m 2915.86,2096.61 c -0.35,-9.22 7.17,-17.11 16.8,-17.65 9.6,-0.54 17.68,6.48 18.04,15.7 0.34,9.22 -7.18,17.13 -16.79,17.67 -9.62,0.53 -17.71,-6.5 -18.05,-15.72" /><path
       id="path266"
       style="fill:#17282f;fill-opacity:1;fill-rule:nonzero;stroke:none"
       d="m 2909.86,2126.95 c 2.15,-2.28 15.41,7.48 34.19,7.39 18.77,0.18 32.53,-9.52 34.58,-7.22 1.01,1.01 -1.19,5.13 -7.18,9.51 -5.9,4.37 -15.98,8.63 -27.68,8.6 -11.71,-0.03 -21.56,-4.32 -27.22,-8.72 -5.8,-4.42 -7.76,-8.53 -6.69,-9.56" /><path
       id="path268"
       style="fill:#17282f;fill-opacity:1;fill-rule:nonzero;stroke:none"
       d="m 3103.15,2096.61 c -0.35,-9.22 7.17,-17.11 16.79,-17.65 9.61,-0.54 17.69,6.48 18.04,15.7 0.34,9.22 -7.18,17.13 -16.78,17.67 -9.63,0.53 -17.7,-6.5 -18.05,-15.72" /><path
       id="path270"
       style="fill:#17282f;fill-opacity:1;fill-rule:nonzero;stroke:none"
       d="m 3094.53,2123.04 c 2.17,-2.28 15.43,7.48 34.21,7.38 18.77,0.18 32.54,-9.51 34.58,-7.22 1,1.02 -1.17,5.13 -7.19,9.52 -5.89,4.37 -15.97,8.62 -27.67,8.6 -11.71,-0.04 -21.55,-4.33 -27.23,-8.72 -5.77,-4.43 -7.75,-8.54 -6.7,-9.56" /><path
       id="path272"
       style="fill:#17282f;fill-opacity:1;fill-rule:nonzero;stroke:none"
       d="m 3026.04,1983.84 c 0.09,1.08 -11.58,3.12 -30.51,5.58 -4.8,0.51 -9.34,1.47 -10.14,4.74 -1.12,3.48 0.9,8.64 3.24,14.22 4.54,11.6 9.28,23.76 14.27,36.5 19.82,51.97 34.18,94.72 32.08,95.49 -2.1,0.79 -19.87,-40.71 -39.69,-92.68 -4.77,-12.82 -9.33,-25.04 -13.68,-36.72 -1.82,-5.45 -4.96,-11.63 -2.53,-18.83 1.29,-3.59 4.81,-6.2 7.88,-7.03 3.07,-0.95 5.78,-1.01 8.15,-1.15 19.04,-1.08 30.86,-1.18 30.93,-0.12" /><path
       id="path274"
       style="fill:#f68260;fill-opacity:1;fill-rule:nonzero;stroke:none"
       d="m 3012.57,1761.53 c 0,0 91.58,-6.11 182.44,48.24 0,0 -46.21,-96 -182.44,-82.96 v 34.72" /><path
       id="path276"
       style="fill:#f03d5f;fill-opacity:1;fill-rule:nonzero;stroke:none"
       d="m 3033.89,1938.55 c 6.77,8.91 18.62,13.8 30.37,12.5 8.15,-0.89 16.39,-4.85 21.32,-11.5 4.94,-6.65 5.96,-16.07 1.44,-22.4 -5.08,-7.12 -15.68,-8.74 -24.64,-6.17 -8.97,2.57 -16.66,8.5 -23.99,14.38 -2.02,1.64 -4.09,3.34 -5.35,5.58 -1.26,2.23 -1.52,5.15 0.04,6.99" /><path
       id="path278"
       style="fill:#17282f;fill-opacity:1;fill-rule:nonzero;stroke:none"
       d="m 3081.31,1970.73 c -3.06,0.18 -3.14,-20.22 -20.63,-34.65 -17.46,-14.48 -39.19,-12.15 -39.36,-15 -0.29,-1.28 4.83,-3.97 14,-4.24 9.01,-0.33 22.15,2.53 32.86,11.37 10.67,8.84 15.27,20.68 15.99,29.05 0.79,8.52 -1.47,13.58 -2.86,13.47" /><path
       id="path280"
       style="fill:#17282f;fill-opacity:1;fill-rule:nonzero;stroke:none"
       d="m 3086.15,2155.96 c 1.85,-5.12 20.62,-2.74 42.65,-5.44 22.1,-2.27 39.85,-8.76 42.79,-4.18 1.31,2.19 -1.77,7 -8.95,11.96 -7.11,4.96 -18.48,9.67 -31.7,11.18 -13.23,1.47 -25.35,-0.6 -33.39,-3.85 -8.1,-3.24 -12.19,-7.25 -11.4,-9.67" /><path
       id="path282"
       style="fill:#17282f;fill-opacity:1;fill-rule:nonzero;stroke:none"
       d="m 2916.88,2181.32 c 3.3,-4.28 16.25,0.12 31.81,0.3 15.56,0.72 28.74,-2.94 31.79,1.52 1.33,2.17 -0.73,6.45 -6.48,10.5 -5.67,4.04 -15.16,7.35 -25.85,7.05 -10.7,-0.32 -19.97,-4.16 -25.39,-8.52 -5.52,-4.38 -7.33,-8.77 -5.88,-10.85" /><path
       id="path284"
       style="fill:#17282f;fill-opacity:1;fill-rule:nonzero;stroke:none"
       d="m 3191.55,2337.22 c 31.2,20.99 71.59,30.64 107.92,20.21 36.32,-10.43 66.42,-43.16 67.65,-80.17 0.79,-24.05 -9.59,-49.62 1.09,-71.3 10.15,-20.64 35.18,-29.04 52.93,-44 27.88,-23.49 36.11,-66.47 18.81,-98.24 -14.86,-27.29 -46.12,-47.29 -48.74,-78.1 -2.47,-29 21.97,-53.46 27.91,-81.96 6.57,-31.45 -10.85,-63.97 -35.79,-84.84 -24.94,-20.86 -56.46,-32.34 -87.26,-43.44 -24.04,-8.64 -49.78,-17.42 -74.73,-11.76 -29.72,6.73 -51.92,34.29 -56,63.85 -4.08,29.56 8.1,59.89 28.35,82.19 17.48,19.26 42.02,35.63 46.21,61.05 6.55,39.59 -40.62,72.12 -37.72,112.13 1.5,20.63 16.04,37.71 28.15,54.67 12.12,16.96 22.69,38.3 15.25,57.66 -9.66,25.18 -42.75,31.74 -62.73,50.2 -16.72,15.44 -23.45,40.42 -16.71,61.91 6.75,21.5 26.67,38.48 49.37,42.08" /><path
       id="path286"
       style="fill:#17282f;fill-opacity:1;fill-rule:nonzero;stroke:none"
       d="m 3206.19,2367.92 c 0.11,-27.26 -12.46,-54.3 -33.36,-71.79 -20.89,-17.49 -49.73,-25.1 -76.54,-20.19 -20.8,3.8 -43.59,14.31 -61.6,3.23 -18.94,-11.66 -19.72,-40.2 -36.51,-54.78 -24.01,-20.84 -62.17,-1.29 -92.64,-10.32 -23.54,-6.99 -38.23,-29.48 -53.86,-48.4 -15.63,-18.92 -39.05,-36.91 -62.58,-29.92 1.5,21.15 3.04,42.52 9.34,62.78 6.3,20.25 17.88,39.57 35.64,51.15 9.75,6.34 21.06,10.21 30.1,17.51 19.53,15.76 24.05,43.21 36.12,65.23 15.54,28.37 45.58,48.3 77.77,51.59 26.79,2.74 54.38,-5.3 80.49,1.28 19.29,4.87 36.15,17.39 55.71,21.11 38.08,7.24 73.47,-20.09 101.07,-47.29" /><path
       id="path288"
       style="fill:#33535f;fill-opacity:1;fill-rule:nonzero;stroke:none"
       d="m 3454.88,2042.44 c -0.67,0.21 4.05,5.18 3.02,15.71 -0.85,10.28 -9.43,24.93 -27.41,31.32 -8.69,3.51 -18.91,5.55 -29.93,8.05 -10.96,2.63 -23.19,5.87 -33.9,13.97 -11.03,7.94 -16.96,22.37 -17.64,36.43 -0.88,14.21 1.36,28.48 2.11,42.86 0.28,7.19 0.1,14.24 -1.08,20.95 -1.39,6.66 -4.15,12.72 -8.03,17.88 -8.18,10.2 -21.02,14.73 -32.77,18.8 -11.96,3.85 -23.68,8.25 -33.39,14.4 -9.81,5.96 -17.99,12.97 -24.61,20.1 -13.33,14.26 -20.34,28.7 -24.04,38.79 -1.85,5.08 -2.97,9.12 -3.5,11.92 -0.56,2.77 -0.78,4.25 -0.6,4.29 0.48,0.12 1.82,-5.69 5.98,-15.46 4.21,-9.68 11.56,-23.49 24.83,-37 13.08,-13.78 32.41,-25.78 56.85,-32.49 11.83,-4.01 25.68,-8.51 35.22,-20.14 4.48,-5.83 7.63,-12.76 9.15,-20.08 1.32,-7.33 1.48,-14.78 1.18,-22.2 -0.77,-14.78 -2.99,-28.9 -2.21,-42.28 0.68,-13.29 5.74,-25.72 15.5,-32.98 9.55,-7.43 21.22,-10.82 31.95,-13.56 10.87,-2.66 21.31,-4.95 30.34,-8.85 9,-3.77 16.6,-9.29 21.1,-15.85 4.61,-6.43 6.6,-13.18 6.92,-18.7 0.28,-5.57 -1.1,-9.82 -2.47,-12.35 -1.33,-2.56 -2.5,-3.59 -2.57,-3.53" /><path
       id="path290"
       style="fill:#33535f;fill-opacity:1;fill-rule:nonzero;stroke:none"
       d="m 2652.91,1957.48 c -0.04,-0.08 -0.78,0.27 -2.22,1.05 -1.43,0.78 -3.37,2.4 -5.12,5.15 -3.41,5.58 -3.6,16.38 2.78,26.89 3.03,5.25 7.9,10.54 14.58,13.94 6.5,3.54 14.03,6.23 21.89,9.24 7.79,3.06 16.21,6.58 22.9,12.98 6.73,6.37 10.93,15.62 13.08,25.83 2.3,10.22 2.97,21.38 4.83,33 1.74,11.55 5.42,24.07 13.5,34.33 15.86,20.89 41.84,31.99 61.22,51.58 9.54,9.87 16.72,22.3 21.27,36.07 4.74,13.72 7.35,28.49 9.63,43.6 4.22,29.9 8.46,63.42 28.61,90.79 9.81,13.57 24.79,23.64 41.07,26.54 16.25,3.21 32.28,0.83 47.41,-1.18 15.18,-2.11 30.08,-4.37 44.31,-2.59 14.26,1.6 26.92,8.5 36.19,18.69 18.58,20.04 29.26,47.03 52.1,60.84 22.1,13.66 47.93,15.39 68.79,9.48 21.19,-5.92 36.79,-20.33 45.27,-35.2 8.78,-14.92 11.55,-30 11.76,-41.98 0.25,-12.1 -2.16,-21.35 -4.36,-27.24 -2.16,-5.94 -4.01,-8.74 -4.01,-8.74 -0.26,0.12 1.2,3.11 3.02,9.07 1.84,5.92 3.88,15.05 3.33,26.85 -0.51,11.69 -3.52,26.28 -12.24,40.54 -8.45,14.24 -23.46,27.71 -43.77,33.15 -19.98,5.45 -44.7,3.5 -65.48,-9.58 -10.32,-6.54 -18.73,-16.23 -26.28,-27.11 -7.68,-10.77 -14.72,-22.78 -24.64,-33.38 -4.96,-5.26 -10.73,-10.09 -17.4,-13.63 -6.73,-3.32 -14.04,-5.91 -21.65,-6.69 -15.19,-1.94 -30.49,0.41 -45.63,2.46 -15.11,2 -30.66,4.18 -45.7,1.16 -15.05,-2.73 -28.65,-11.82 -37.94,-24.59 -9.45,-12.69 -15.39,-27.64 -19.46,-42.68 -4.09,-15.09 -5.88,-30.54 -8.25,-45.75 -2.34,-15.19 -5.02,-30.24 -9.97,-44.46 -4.76,-14.23 -12.39,-27.42 -22.54,-37.79 -20.54,-20.35 -46.26,-31.21 -61.22,-50.85 -7.64,-9.56 -11.13,-21.03 -12.98,-32.36 -1.92,-11.35 -2.7,-22.58 -5.19,-33.17 -2.33,-10.55 -6.99,-20.59 -14.4,-27.41 -7.4,-6.87 -16.25,-10.33 -24.15,-13.3 -8,-2.92 -15.42,-5.42 -21.76,-8.7 -6.4,-3.12 -10.93,-7.86 -14.01,-12.82 -6.34,-9.87 -6.46,-20 -3.58,-25.33 3.05,-5.33 6.71,-6.35 6.41,-6.7" /><path
       id="path292"
       style="fill:#f03d5f;fill-opacity:1;fill-rule:nonzero;stroke:none"
       d="m 2318.8,1020.13 241.52,22.13 c 0,0 148.63,391.46 331.85,486.4 L 3010.85,1321.34 2756.8,844 h -496.06 l 58.06,176.13" /><path
       id="path294"
       style="fill:#ba2c42;fill-opacity:1;fill-rule:nonzero;stroke:none"
       d="M 2650.59,844 H 2349.8 c -27.16,7.551 -54.44,15.141 -81.57,22.699 l 50.57,153.431 241.52,22.13 c 0,0 148.63,391.46 331.85,486.4 v 0 l -101.3,-128.79 -52.71,-74.88 c -30.57,-43.39 -53.76,-91.91 -65.31,-143.73 -12.77,-57.34 -14.53,-113.29 -14.53,-174.2 L 2650.59,844" /><path
       id="path296"
       style="fill:#fafaf9;fill-opacity:1;fill-rule:nonzero;stroke:none"
       d="m 2414.23,909.57 c -1.23,0.75 7.88,18.262 20.35,39.121 12.48,20.868 23.6,37.188 24.83,36.45 1.24,-0.743 -7.87,-18.25 -20.36,-39.121 -12.47,-20.86 -23.59,-37.18 -24.82,-36.45" /><path
       id="path298"
       style="fill:#fafaf9;fill-opacity:1;fill-rule:nonzero;stroke:none"
       d="m 2585.33,914.32 c -1.11,-0.91 -14.32,13.672 -29.5,32.551 -15.17,18.879 -26.57,34.91 -25.45,35.82 1.13,0.899 14.33,-13.671 29.51,-32.562 15.17,-18.879 26.57,-34.91 25.44,-35.809" /><path
       id="path300"
       style="fill:#fafaf9;fill-opacity:1;fill-rule:nonzero;stroke:none"
       d="m 2615.05,1004.09 c -1.43,0 -2.61,14.17 -2.61,31.66 0,17.5 1.18,31.67 2.61,31.67 1.44,0 2.61,-14.17 2.61,-31.67 0,-17.49 -1.17,-31.66 -2.61,-31.66" /><path
       id="path302"
       style="fill:#fafaf9;fill-opacity:1;fill-rule:nonzero;stroke:none"
       d="m 2530.05,864.09 c -0.79,-1.211 -11.12,4.16 -23.09,11.98 -11.97,7.832 -21.03,15.141 -20.24,16.352 0.78,1.207 11.12,-4.16 23.09,-11.992 11.97,-7.821 21.03,-15.141 20.24,-16.34" /><path
       id="path304"
       style="fill:#fafaf9;fill-opacity:1;fill-rule:nonzero;stroke:none"
       d="m 2668.72,1223.93 c 1.31,-0.59 -6.15,-20.11 -16.68,-43.6 -10.52,-23.51 -20.12,-42.08 -21.44,-41.49 -1.31,0.59 6.16,20.11 16.69,43.61 10.52,23.5 20.12,42.07 21.43,41.48" /><path
       id="path306"
       style="fill:#fafaf9;fill-opacity:1;fill-rule:nonzero;stroke:none"
       d="m 2766.61,1382.56 c 0.87,-1.14 -7.77,-9.15 -19.28,-17.88 -11.53,-8.73 -21.57,-14.87 -22.44,-13.73 -0.86,1.15 7.77,9.15 19.29,17.88 11.52,8.73 21.56,14.87 22.43,13.73" /><path
       id="path308"
       style="fill:#f03d5f;fill-opacity:1;fill-rule:nonzero;stroke:none"
       d="m 3127.85,874.941 124.56,503.079 c 21.68,87.59 107.66,143.29 196.47,127.29 91.41,-16.48 152.99,-102.87 138.75,-194.65 L 3511.38,818.992 C 3492.63,715.961 3410.72,636.102 3307.27,619.949 l -99.02,-15.429 -80.4,270.421" /><path
       id="path310"
       style="fill:#17282f;fill-opacity:1;fill-rule:nonzero;stroke:none"
       d="m 3520.4,1537.81 c -0.63,-1.2 -13.94,15.08 -44.43,22.33 -14.98,3.47 -33.8,4.35 -53.61,-0.37 -19.81,-4.65 -40.15,-15.33 -58.28,-30.39 -36.51,-30.6 -56.37,-70.36 -69.87,-98.21 -6.67,-14.16 -11.75,-25.79 -15.37,-33.77 -3.61,-8 -5.75,-12.37 -6.08,-12.23 -0.34,0.14 1.16,4.76 4.21,13 3.04,8.23 7.61,20.09 13.89,34.52 6.36,14.38 14.45,31.39 25.61,49.1 11.09,17.71 25.64,35.98 44.28,51.59 18.67,15.51 39.81,26.49 60.52,31.06 20.7,4.65 40.2,3.33 55.59,-0.73 15.44,-4.17 26.8,-10.8 33.75,-16.29 3.45,-2.8 6.01,-5.07 7.56,-6.85 1.59,-1.69 2.36,-2.64 2.23,-2.76" /><path
       id="path312"
       style="fill:#17282f;fill-opacity:1;fill-rule:nonzero;stroke:none"
       d="m 2814.75,1424.61 c 0.13,-0.12 -1.08,-1.73 -3.49,-4.68 -2.8,-3.34 -6.33,-7.57 -10.65,-12.75 -9.22,-11.1 -22.39,-27.32 -37.38,-48.27 -29.77,-41.64 -67.29,-103.86 -85.03,-180.53 -17.39,-76.71 -18.24,-148.54 -21.19,-199.989 -1.24,-25.801 -2.45,-46.692 -3.56,-61.102 -0.6,-6.726 -1.08,-12.219 -1.47,-16.57 -0.4,-3.789 -0.69,-5.778 -0.87,-5.77 -0.18,0.02 -0.24,2.031 -0.17,5.821 0.13,4.382 0.29,9.878 0.49,16.64 0.47,15.141 1.12,35.852 1.9,61.129 2.02,51.441 2.26,123.541 19.79,201.011 17.99,77.69 56.45,140.23 87.14,181.53 15.46,20.79 29.1,36.71 38.81,47.43 4.82,5.4 8.78,9.38 11.41,12.13 2.67,2.72 4.13,4.09 4.27,3.97" /><path
       id="path314"
       style="fill:#f03d5f;fill-opacity:1;fill-rule:nonzero;stroke:none"
       d="m 3612.95,1425.7 c -13.66,89.95 -63.35,111.54 -114.8,139.56 -16.83,9.15 -97.93,29.97 -162.23,45.64 -6.14,38.98 -17.15,108.7 -19.56,123.43 -3.4,20.68 -327.57,-31.03 -331.67,-38.78 -2.73,-5.15 -10.19,-85.93 -14.91,-139.76 l -77.61,-27.13 -101.3,-128.79 -52.71,-74.88 c -30.57,-43.39 -53.76,-91.91 -65.31,-143.73 -12.77,-57.34 -14.53,-113.29 -14.53,-174.2 l -15.66,-330.247 678.26,-191.801 52.51,334.547 174.98,238.191 c 14.94,96.34 81.35,257.33 64.54,367.95" /><path
       id="path316"
       style="fill:#17282f;fill-opacity:1;fill-rule:nonzero;stroke:none"
       d="m 3034.08,1545.39 c -0.71,-0.07 -2.38,8.69 -4.51,22.91 -2.13,14.24 -4.69,33.95 -7.22,55.75 -1.19,10.78 -2.31,21.06 -3.36,30.76 -0.87,9.43 -2.07,17.95 -1.8,25.43 0.2,7.42 2.27,13.49 4.83,16.89 2.62,3.4 4.87,4.33 5,4.1 0.29,-0.34 -1.45,-1.81 -3.28,-5.17 -1.79,-3.39 -3.11,-8.86 -2.87,-15.85 0.19,-6.94 1.74,-15.39 2.88,-24.86 1.19,-9.67 2.44,-19.94 3.77,-30.71 2.52,-21.79 4.52,-41.57 5.71,-55.91 1.19,-14.34 1.57,-23.25 0.85,-23.34" /><path
       id="path318"
       style="fill:#17282f;fill-opacity:1;fill-rule:nonzero;stroke:none"
       d="m 3120.57,1565.83 c -0.64,-0.18 -3.72,7.73 -7.22,20.97 -3.51,13.23 -7.21,31.87 -9.15,52.71 -1.91,20.85 -1.69,39.86 -0.66,53.51 1.01,13.66 2.59,22 3.26,21.93 1.6,-0.13 -1.34,-33.76 2.59,-74.96 3.68,-41.21 12.73,-73.74 11.18,-74.16" /><path
       id="path320"
       style="fill:#17282f;fill-opacity:1;fill-rule:nonzero;stroke:none"
       d="m 3281.51,1589.23 c -1.71,0.18 5.47,33.78 -1.84,74.59 -6.85,40.9 -24.93,70.12 -23.37,70.87 0.51,0.32 5.68,-6.49 11.89,-18.83 6.2,-12.28 12.96,-30.33 16.61,-51.15 3.57,-20.82 3.28,-40.1 1.57,-53.76 -1.69,-13.69 -4.27,-21.85 -4.86,-21.72" /><path
       id="path322"
       style="fill:#fafaf9;fill-opacity:1;fill-rule:nonzero;stroke:none"
       d="m 2820.94,1295.07 c -1.18,0.76 10.05,20.06 26.56,42.03 16.48,22 31.86,38.19 32.92,37.27 1.12,-0.96 -12.39,-18.54 -28.75,-40.39 -16.39,-21.83 -29.5,-39.72 -30.73,-38.91" /><path
       id="path324"
       style="fill:#fafaf9;fill-opacity:1;fill-rule:nonzero;stroke:none"
       d="m 2973.71,1419.33 c -1.14,-0.87 -13.22,13.01 -26.97,31 -13.75,17.99 -23.97,33.29 -22.83,34.16 1.14,0.87 13.21,-13 26.97,-31 13.75,-17.99 23.97,-33.28 22.83,-34.16" /><path
       id="path326"
       style="fill:#fafaf9;fill-opacity:1;fill-rule:nonzero;stroke:none"
       d="m 3133.38,1497.42 c 0.95,-1.15 -14.04,-14.84 -31.9,-32.28 -17.9,-17.4 -31.98,-32.02 -33.1,-31.05 -1.06,0.89 11.37,17.19 29.46,34.78 18.05,17.63 34.67,29.64 35.54,28.55" /><path
       id="path328"
       style="fill:#fafaf9;fill-opacity:1;fill-rule:nonzero;stroke:none"
       d="m 3088.54,1592.59 c -0.97,-1.06 -12.13,7.47 -24.93,19.06 -12.81,11.61 -22.41,21.87 -21.44,22.93 0.97,1.07 12.13,-7.47 24.93,-19.06 12.8,-11.6 22.4,-21.86 21.44,-22.93" /><path
       id="path330"
       style="fill:#fafaf9;fill-opacity:1;fill-rule:nonzero;stroke:none"
       d="m 3228.43,1667.21 c 0.3,-1.41 -14.77,-5.83 -33.66,-9.87 -18.89,-4.05 -34.45,-6.18 -34.75,-4.78 -0.3,1.41 14.77,5.82 33.66,9.87 18.89,4.05 34.45,6.19 34.75,4.78" /><path
       id="path332"
       style="fill:#fafaf9;fill-opacity:1;fill-rule:nonzero;stroke:none"
       d="m 3256.42,1445.74 c -1.44,-0.07 -3.4,15.53 -4.38,34.86 -0.97,19.33 -0.59,35.06 0.84,35.13 1.44,0.07 3.39,-15.54 4.37,-34.87 0.97,-19.32 0.6,-35.05 -0.83,-35.12" /><path
       id="path334"
       style="fill:#fafaf9;fill-opacity:1;fill-rule:nonzero;stroke:none"
       d="m 3205.4,1339.21 c -1.35,-0.49 -9.19,17.62 -17.51,40.45 -8.33,22.83 -13.97,41.74 -12.62,42.23 1.34,0.5 9.19,-17.61 17.52,-40.45 8.32,-22.82 13.97,-41.73 12.61,-42.23" /><path
       id="path336"
       style="fill:#fafaf9;fill-opacity:1;fill-rule:nonzero;stroke:none"
       d="m 3066.86,1264.13 c -1.35,-0.51 -9.96,18.44 -19.25,42.34 -9.29,23.9 -15.72,43.7 -14.39,44.22 1.34,0.52 9.96,-18.43 19.24,-42.34 9.29,-23.89 15.74,-43.69 14.4,-44.22" /><path
       id="path338"
       style="fill:#fafaf9;fill-opacity:1;fill-rule:nonzero;stroke:none"
       d="m 2936.41,1179.03 c -1.41,-0.3 -6.44,18.46 -11.23,41.9 -4.81,23.43 -7.55,42.66 -6.14,42.95 1.41,0.28 6.44,-18.48 11.24,-41.91 4.79,-23.43 7.53,-42.66 6.13,-42.94" /><path
       id="path340"
       style="fill:#fafaf9;fill-opacity:1;fill-rule:nonzero;stroke:none"
       d="m 2781.47,1175.63 c -1.3,-0.64 -10.68,15.97 -20.96,37.06 -10.27,21.09 -17.56,38.71 -16.26,39.33 1.29,0.64 10.66,-15.95 20.95,-37.06 10.27,-21.09 17.56,-38.71 16.27,-39.33" /><path
       id="path342"
       style="fill:#fafaf9;fill-opacity:1;fill-rule:nonzero;stroke:none"
       d="m 2778.12,1076.28 c 0.64,-1.29 -17.54,-11.57 -40.61,-22.97 -23.07,-11.38 -42.28,-19.58 -42.92,-18.29 -0.64,1.29 17.54,11.58 40.62,22.97 23.05,11.39 42.27,19.58 42.91,18.29" /><path
       id="path344"
       style="fill:#fafaf9;fill-opacity:1;fill-rule:nonzero;stroke:none"
       d="m 2780.05,919.09 c -1.3,-0.5 -8.57,15.5 -14.11,36.39 -5.6,20.891 -7.27,38.391 -5.89,38.61 1.47,0.242 5.39,-16.66 10.92,-37.258 5.47,-20.621 10.47,-37.23 9.08,-37.742" /><path
       id="path346"
       style="fill:#fafaf9;fill-opacity:1;fill-rule:nonzero;stroke:none"
       d="m 2748,808.672 c -0.98,-1.07 -15.6,10.726 -32.65,26.34 -17.07,15.617 -30.1,29.129 -29.14,30.187 0.98,1.063 15.59,-10.73 32.66,-26.347 17.05,-15.61 30.1,-29.133 29.13,-30.18" /><path
       id="path348"
       style="fill:#fafaf9;fill-opacity:1;fill-rule:nonzero;stroke:none"
       d="m 2952.17,884.012 c 0.38,-1.5 -22.59,-8.051 -49.38,-19.883 -26.87,-11.688 -47.25,-24.117 -48.09,-22.828 -0.79,1.09 18.64,15.699 46,27.609 27.29,12.031 51.21,16.41 51.47,15.102" /><path
       id="path350"
       style="fill:#fafaf9;fill-opacity:1;fill-rule:nonzero;stroke:none"
       d="m 2892.45,938.762 c -1.35,-0.473 -7.93,14.859 -14.67,34.238 -6.76,19.391 -11.14,35.48 -9.78,35.95 1.37,0.48 7.94,-14.848 14.69,-34.239 6.76,-19.371 11.12,-35.481 9.76,-35.949" /><path
       id="path352"
       style="fill:#fafaf9;fill-opacity:1;fill-rule:nonzero;stroke:none"
       d="m 3013.59,1073.96 c 1.22,-0.77 -11.04,-22.4 -27.38,-48.32 -16.34,-25.929 -30.56,-46.308 -31.78,-45.55 -1.21,0.769 11.04,22.4 27.38,48.32 16.34,25.92 30.56,46.31 31.78,45.55" /><path
       id="path354"
       style="fill:#fafaf9;fill-opacity:1;fill-rule:nonzero;stroke:none"
       d="m 3143.7,1060.99 c -1.08,-0.84 -17.23,18.67 -33.23,45.41 -16.06,26.71 -25.67,50.13 -24.42,50.69 1.35,0.65 12.98,-21.57 28.89,-48.01 15.83,-26.48 29.97,-47.2 28.76,-48.09" /><path
       id="path356"
       style="fill:#fafaf9;fill-opacity:1;fill-rule:nonzero;stroke:none"
       d="m 3221.66,1189.41 c 0.28,-1.36 -16.64,-5.74 -38.06,-6.77 -21.44,-1.09 -38.7,1.59 -38.56,2.96 0.12,1.49 17.27,1.16 38.29,2.25 21.04,1 38.07,3.02 38.33,1.56" /><path
       id="path358"
       style="fill:#fafaf9;fill-opacity:1;fill-rule:nonzero;stroke:none"
       d="m 3406.74,1335.72 c 0.62,-1.31 -21.33,-13.06 -49.01,-26.24 -27.7,-13.2 -50.64,-22.84 -51.26,-21.54 -0.62,1.29 21.33,13.04 49.02,26.23 27.68,13.2 50.63,22.84 51.25,21.55" /><path
       id="path360"
       style="fill:#fafaf9;fill-opacity:1;fill-rule:nonzero;stroke:none"
       d="m 3419.05,1428.75 c -1.28,0.65 6.56,19.1 17.53,41.22 10.97,22.14 20.91,39.55 22.2,38.92 1.29,-0.63 -6.56,-19.09 -17.54,-41.23 -10.96,-22.12 -20.91,-39.54 -22.19,-38.91" /><path
       id="path362"
       style="fill:#fafaf9;fill-opacity:1;fill-rule:nonzero;stroke:none"
       d="m 3536.68,1355.75 c -1.44,-0.34 -7.28,20.31 -15.18,45.49 -7.87,25.21 -14.83,45.49 -13.45,46.05 1.28,0.53 10.49,-19.06 18.42,-44.49 7.98,-25.41 11.58,-46.76 10.21,-47.05" /><path
       id="path364"
       style="fill:#fafaf9;fill-opacity:1;fill-rule:nonzero;stroke:none"
       d="m 3555.1,1258.94 c 0.49,-1.3 -18.81,-9.65 -43.88,-16.05 -25.06,-6.45 -45.99,-8.41 -46.19,-7.04 -0.22,1.48 20.13,5.71 44.9,12.09 24.78,6.32 44.66,12.41 45.17,11" /><path
       id="path366"
       style="fill:#fafaf9;fill-opacity:1;fill-rule:nonzero;stroke:none"
       d="m 3353.59,1140.72 c -1.52,0.3 2.77,24.63 3.98,54.93 1.37,30.3 -0.84,54.91 0.69,55.09 1.31,0.22 5.89,-24.49 4.52,-55.31 -1.24,-30.82 -7.9,-55.06 -9.19,-54.71" /><path
       id="path368"
       style="fill:#fafaf9;fill-opacity:1;fill-rule:nonzero;stroke:none"
       d="m 3313.38,1019.09 c -0.92,-1.01 -18.5,13.92 -36.58,35.77 -18.15,21.8 -29.58,41.84 -28.42,42.56 1.27,0.83 14.5,-17.71 32.42,-39.23 17.85,-21.59 33.63,-38.01 32.58,-39.1" /><path
       id="path370"
       style="fill:#fafaf9;fill-opacity:1;fill-rule:nonzero;stroke:none"
       d="m 3515.49,1044.69 c 0.56,-1.33 -18.11,-10.39 -41.7,-20.23 -23.59,-9.86 -43.15,-16.77 -43.71,-15.44 -0.56,1.33 18.12,10.39 41.71,20.24 23.57,9.84 43.15,16.76 43.7,15.43" /><path
       id="path372"
       style="fill:#fafaf9;fill-opacity:1;fill-rule:nonzero;stroke:none"
       d="m 3443.08,815.762 c -1.44,0 -2.36,24.636 -2.05,55.019 0.3,30.391 1.72,54.989 3.15,54.981 1.44,-0.012 2.36,-24.641 2.05,-55.032 -0.3,-30.378 -1.72,-54.988 -3.15,-54.968" /><path
       id="path374"
       style="fill:#fafaf9;fill-opacity:1;fill-rule:nonzero;stroke:none"
       d="m 3287.92,828.902 c -1.36,0.18 1.14,25.797 8.89,56.52 7.66,30.758 17.56,54.519 18.84,54.039 1.41,-0.512 -6.19,-24.852 -13.79,-55.313 -7.68,-30.429 -12.45,-55.476 -13.94,-55.246" /><path
       id="path376"
       style="fill:#fafaf9;fill-opacity:1;fill-rule:nonzero;stroke:none"
       d="m 3295.07,768.832 c 0.09,-1.512 -24.85,-3.891 -55.23,-8.953 -30.42,-4.969 -54.79,-10.738 -55.2,-9.277 -0.39,1.308 23.6,9.378 54.35,14.41 30.71,5.117 56.03,5.179 56.08,3.82" /><path
       id="path378"
       style="fill:#fafaf9;fill-opacity:1;fill-rule:nonzero;stroke:none"
       d="m 3123.46,807.352 c -1.04,0.988 12.25,16.41 29.65,34.437 17.42,18.031 32.37,31.832 33.41,30.832 1.02,-1.012 -12.25,-16.43 -29.66,-34.449 -17.41,-18.02 -32.37,-31.832 -33.4,-30.82" /><path
       id="path380"
       style="fill:#fafaf9;fill-opacity:1;fill-rule:nonzero;stroke:none"
       d="m 3012.32,699.211 c -1.48,-0.289 -5.92,17.699 -13.51,39.121 -7.5,21.469 -15.31,38.27 -13.97,38.977 1.18,0.671 11.22,-15.34 18.88,-37.25 7.74,-21.86 9.94,-40.629 8.6,-40.848" /><path
       id="path382"
       style="fill:#fafaf9;fill-opacity:1;fill-rule:nonzero;stroke:none"
       d="m 3191.72,637.422 c -0.59,-1.32 -23.05,7.379 -50.17,19.41 -27.12,12.039 -48.64,22.867 -48.05,24.18 0.58,1.32 23.04,-7.371 50.16,-19.41 27.12,-12.051 48.64,-22.872 48.06,-24.18" /><path
       id="path384"
       style="fill:#fafaf9;fill-opacity:1;fill-rule:nonzero;stroke:none"
       d="m 2879.02,655.539 c -1.37,0.461 2.84,16.84 9.4,36.582 6.56,19.758 12.98,35.399 14.35,34.949 1.36,-0.461 -2.85,-16.828 -9.41,-36.59 -6.56,-19.738 -12.99,-35.39 -14.34,-34.941" /><path
       id="path386"
       style="fill:#fafaf9;fill-opacity:1;fill-rule:nonzero;stroke:none"
       d="m 3085.04,620.68 c -0.28,-1.532 -28.73,3.082 -64.08,4.89 -35.36,1.95 -64.13,0.391 -64.25,1.93 -0.16,1.32 28.73,5.242 64.52,3.27 35.79,-1.84 64.1,-8.79 63.81,-10.09" /><path
       id="path388"
       style="fill:#17282f;fill-opacity:1;fill-rule:nonzero;stroke:none"
       d="m 3127.85,915.551 c -0.16,0 -0.25,1.347 -0.26,3.949 -0.07,2.582 0.2,6.492 1.61,11.34 1.3,4.801 4.43,10.902 10.87,14.89 6.33,4.11 15.08,5.512 24.41,4.032 l -2.05,-1.192 c 10.96,38.34 28.44,94.37 45.94,157.16 16.4,58.77 27.44,112.92 35.21,152.16 3.74,18.99 6.82,34.67 9.15,46.5 2.21,10.97 3.6,17.02 3.95,16.95 0.36,-0.06 -0.36,-6.21 -1.95,-17.29 -1.58,-11.1 -4.13,-27.09 -7.53,-46.83 -6.85,-39.44 -17.36,-93.91 -33.8,-152.87 -17.55,-62.96 -35.66,-118.76 -47.63,-156.799 l -0.47,-1.492 -1.58,0.293 c -8.27,1.539 -16.56,0.5 -22.22,-2.973 -5.86,-3.309 -9,-8.66 -10.5,-13.137 -3.05,-9.133 -2.49,-14.762 -3.15,-14.691" /><path
       id="path390"
       style="fill:#17282f;fill-opacity:1;fill-rule:nonzero;stroke:none"
       d="m 3352.09,776.469 c -0.86,-0.399 -7,13.14 -19.72,33.332 -12.65,20.179 -32.73,46.57 -59.59,71.07 -26.97,24.43 -55.15,41.899 -76.45,52.57 -21.3,10.731 -35.37,15.559 -35.05,16.461 0.11,0.34 3.7,-0.632 10.13,-2.66 6.44,-1.941 15.56,-5.492 26.53,-10.492 21.94,-9.93 50.94,-27.211 78.34,-52.02 27.31,-24.898 47.26,-52.109 59.24,-73.019 6.02,-10.441 10.42,-19.172 12.97,-25.41 2.63,-6.199 3.93,-9.692 3.6,-9.832" /><path
       id="path392"
       style="fill:#da314b;fill-opacity:1;fill-rule:nonzero;stroke:none"
       d="m 3341.2,832.66 c -2.5,0 -5.04,0.449 -7.38,1.281 -6.36,2.25 -11.6,6.809 -16.55,11.391 -5.84,5.398 -11.74,10.629 -17.68,15.77 -0.86,0.968 -1.74,1.937 -2.62,2.91 1.47,6.258 3.1,13.047 4.89,20.136 3.18,12.762 6.37,24.454 8.89,33.762 19.61,-13.988 35.65,-32.469 43.89,-54.949 3.16,-8.621 4.67,-19.512 -1.86,-25.969 -3.04,-3 -7.27,-4.332 -11.58,-4.332 m -48.29,35.731 c -5.2,5.5 -10.74,10.968 -16.63,16.339 -21.35,19.34 -43.67,34.102 -62.87,44.372 -10.7,6.199 -21.94,11.488 -33.06,15.058 -3.37,1.27 -6.37,2.301 -8.94,3.082 -2.04,0.637 -3.79,1.18 -5.23,1.598 0.84,2.68 1.71,5.43 2.61,8.269 37.38,-2.699 68.27,-5.707 103.58,-18.937 12.16,-4.563 24.01,-10.531 34.87,-17.832 -3.29,-9.34 -7.08,-21.461 -10.43,-34.918 -1.49,-5.91 -2.79,-11.641 -3.9,-17.031" /><path
       id="path394"
       style="fill:#bfc0be;fill-opacity:1;fill-rule:nonzero;stroke:none"
       d="m 3296.97,864.012 c -1.33,1.457 -2.68,2.918 -4.06,4.379 1.11,5.39 2.41,11.121 3.9,17.031 3.35,13.457 7.14,25.578 10.43,34.918 1.18,-0.801 2.35,-1.61 3.51,-2.43 -2.52,-9.308 -5.71,-21 -8.89,-33.762 -1.79,-7.089 -3.42,-13.878 -4.89,-20.136" /><path
       id="path396"
       style="fill:#111d23;fill-opacity:1;fill-rule:nonzero;stroke:none"
       d="m 3164.7,947.969 c -0.2,0.031 -0.4,0.062 -0.6,0.094 l 0.05,0.148 c 0.18,-0.082 0.36,-0.16 0.55,-0.242 m 1.48,0.871 c -0.62,0.18 -1.19,0.34 -1.69,0.48 l 2.42,7.93 c 0.63,-0.051 1.25,-0.09 1.88,-0.141 -0.9,-2.839 -1.77,-5.589 -2.61,-8.269" /><path
       id="path398"
       style="fill:#111d23;fill-opacity:1;fill-rule:nonzero;stroke:none"
       d="m 3299.59,861.102 c -16.47,14.269 -33.25,27.82 -49.98,42.218 -10.36,8.922 -22.86,18.051 -36.2,25.782 19.2,-10.27 41.52,-25.032 62.87,-44.372 5.89,-5.371 11.43,-10.839 16.63,-16.339 1.38,-1.461 2.73,-2.922 4.06,-4.379 0.88,-0.973 1.76,-1.942 2.62,-2.91 m -119.24,83.058 c -5.27,1.68 -10.51,2.981 -15.65,3.809 -0.19,0.082 -0.37,0.16 -0.55,0.242 l 0.34,1.109 c 0.5,-0.14 1.07,-0.3 1.69,-0.48 1.44,-0.418 3.19,-0.961 5.23,-1.598 2.57,-0.781 5.57,-1.812 8.94,-3.082" /><path
       id="path400"
       style="fill:#17282f;fill-opacity:1;fill-rule:nonzero;stroke:none"
       d="m 3094.82,1021.04 c 0.14,-0.28 -3.48,-2.59 -10.43,-6.04 -6.95,-3.46 -17.39,-7.77 -30.76,-11.6 -26.57,-7.752 -66.26,-11.998 -107.79,-1.22 -41.53,10.79 -74.16,33.82 -93.58,53.52 -9.84,9.85 -16.86,18.7 -21.23,25.1 -4.4,6.4 -6.44,10.18 -6.17,10.35 0.83,0.62 9.94,-14.06 29.96,-32.8 19.74,-18.69 51.88,-40.62 92.33,-51.13 40.44,-10.49 79.18,-6.97 105.53,-0.25 26.61,6.63 41.71,15.02 42.14,14.07" /><path
       id="path402"
       style="fill:#da314b;fill-opacity:1;fill-rule:nonzero;stroke:none"
       d="m 2963.16,958.891 c -0.39,0 -0.78,0 -1.18,0.011 -23.23,0.379 -44.75,12.297 -63.16,26.469 -30.58,23.569 -50.03,58.359 -66.4,93.439 4.42,-6.19 10.99,-14.25 19.84,-23.11 19.42,-19.7 52.05,-42.73 93.58,-53.52 5.97,-1.55 11.9,-2.789 17.76,-3.75 -6.23,-10.789 -9.86,-17.899 -9.17,-18.34 0.02,-0.008 0.04,-0.02 0.08,-0.02 0.97,0 6.16,6.879 13.51,17.68 10.1,-1.43 19.96,-2.059 29.4,-2.059 19.35,0 36.97,2.641 51.33,6.369 -24.99,-21.13 -53.04,-43.169 -85.59,-43.169" /><path
       id="path404"
       style="fill:#bfc0be;fill-opacity:1;fill-rule:nonzero;stroke:none"
       d="m 2954.51,980.07 c -0.04,0 -0.06,0.012 -0.08,0.02 -0.69,0.441 2.94,7.551 9.17,18.34 1.48,-0.239 2.95,-0.469 4.42,-0.68 -7.35,-10.801 -12.54,-17.68 -13.51,-17.68" /><path
       id="path406"
       style="fill:#da314b;fill-opacity:1;fill-rule:nonzero;stroke:none"
       d="m 3000.17,1000.58 c -9.28,0 -18.99,0.59 -28.94,1.93 0.35,0.53 0.71,1.07 1.08,1.61 9.67,-1.74 19.44,-2.94 29.23,-3.53 -0.45,-0.01 -0.91,-0.01 -1.37,-0.01 m -33.77,2.64 c -6.35,1 -12.78,2.32 -19.25,4 -37.88,9.84 -68.48,29.7 -88.43,47.54 29.34,-23.75 67.95,-41.57 108.76,-49.72 -0.37,-0.62 -0.73,-1.22 -1.08,-1.82" /><path
       id="path408"
       style="fill:#bfc0be;fill-opacity:1;fill-rule:nonzero;stroke:none"
       d="m 2971.23,1002.51 c -1.6,0.21 -3.22,0.45 -4.83,0.71 0.35,0.6 0.71,1.2 1.08,1.82 1.6,-0.32 3.21,-0.63 4.83,-0.92 -0.37,-0.54 -0.73,-1.08 -1.08,-1.61" /><path
       id="path410"
       style="fill:#111d23;fill-opacity:1;fill-rule:nonzero;stroke:none"
       d="m 2997.42,995.691 c -9.44,0 -19.3,0.629 -29.4,2.059 -1.47,0.211 -2.94,0.441 -4.42,0.68 -5.86,0.961 -11.79,2.2 -17.76,3.75 -41.53,10.79 -74.16,33.82 -93.58,53.52 -8.85,8.86 -15.42,16.92 -19.84,23.11 -0.72,1.53 -1.43,3.07 -2.13,4.61 7.96,-10.24 17.56,-19.86 28.43,-28.66 19.95,-17.84 50.55,-37.7 88.43,-47.54 6.47,-1.68 12.9,-3 19.25,-4 1.61,-0.26 3.23,-0.5 4.83,-0.71 9.95,-1.34 19.66,-1.93 28.94,-1.93 0.46,0 0.92,0 1.37,0.01 4.8,-0.3 9.62,-0.45 14.41,-0.45 11.28,0 22.51,0.83 33.55,2.56 -0.25,-0.22 -0.5,-0.43 -0.75,-0.64 -14.36,-3.728 -31.98,-6.369 -51.33,-6.369" /><path
       id="path412"
       style="fill:#17282f;fill-opacity:1;fill-rule:nonzero;stroke:none"
       d="m 3200,1573.47 c -1.59,0.1 0.32,34.35 -3.79,76.24 -3.91,41.93 -12.29,75.2 -10.75,75.59 0.66,0.17 3.58,-7.94 6.93,-21.46 3.37,-13.49 6.97,-32.45 9.01,-53.63 2.01,-21.17 2.08,-40.46 1.34,-54.36 -0.74,-13.9 -2.07,-22.42 -2.74,-22.38" /><path
       id="path414"
       style="fill:#f03d5f;fill-opacity:1;fill-rule:nonzero;stroke:none"
       d="m 2013.82,235.242 c 0,0 -108.69,-23.492 -205.72,-8.941 -90.97,13.629 -294.66,-0.481 -294.58,-120.371 0.08,-133.7308 271.69,-100.68 377.67,-79.4886 105.97,21.1992 211.5,40.4102 211.5,40.4102 l -88.87,168.3904" /><path
       id="path416"
       style="fill:#17282f;fill-opacity:1;fill-rule:nonzero;stroke:none"
       d="m 1769.89,63.9297 c -1.4,-0.3203 -7.28,20.5195 -13.13,46.5313 -5.84,26.031 -9.45,47.371 -8.04,47.687 1.4,0.313 7.28,-20.519 13.12,-46.546 5.85,-26.0122 9.45,-47.3598 8.05,-47.6723" /><path
       id="path418"
       style="fill:#17282f;fill-opacity:1;fill-rule:nonzero;stroke:none"
       d="m 1806.96,62.1602 c -1.43,-0.1914 -5.53,21.1718 -9.17,47.7188 -3.65,26.551 -5.44,48.23 -4.02,48.422 1.43,0.199 5.53,-21.16 9.18,-47.711 3.64,-26.5509 5.44,-48.2306 4.01,-48.4298" /><path
       id="path420"
       style="fill:#17282f;fill-opacity:1;fill-rule:nonzero;stroke:none"
       d="m 1842.76,76.1523 c -1.43,-0.1835 -4.86,18.4883 -7.66,41.6877 -2.79,23.199 -3.91,42.14 -2.48,42.312 1.43,0.18 4.86,-18.492 7.66,-41.691 2.79,-23.1993 3.91,-42.1524 2.48,-42.3087" /><path
       id="path422"
       style="fill:#17282f;fill-opacity:1;fill-rule:nonzero;stroke:none"
       d="m 1898.98,90.1719 c -1.26,-0.5508 -8.98,15.0471 -13.98,35.7971 -5.08,20.742 -5.36,38.133 -3.99,38.23 1.49,0.141 4.08,-16.699 9.05,-37 4.89,-20.32 10.31,-36.4685 8.92,-37.0271" /><path
       id="path424"
       style="fill:#17282f;fill-opacity:1;fill-rule:nonzero;stroke:none"
       d="m 1911.03,139.051 c -0.03,0.301 5.01,1.148 14.2,0.941 9.15,-0.25 22.6,-1.742 38.16,-7.461 3.92,-1.472 7.99,-3.359 11.75,-6.34 3.71,-2.859 7.21,-7.519 7.36,-13.242 0.12,-11.828 -12.87,-20.3592 -24.61,-17.8904 -11.87,2.2734 -20.9,10.9614 -28.37,20.2114 -7.56,9.449 -13.02,21 -16.05,33.421 -5.96,24.95 -1.53,50.75 11.96,69.25 1.96,2.219 4.67,4.348 8.07,4.86 3.29,0.551 6.85,-0.731 9.04,-2.832 4.45,-4.219 6.01,-9.571 6.81,-14.59 1.26,-9.809 0.56,-19.098 -1.44,-27.188 -3.91,-16.332 -12.06,-27.64 -18.34,-34.3 -3.2,-3.328 -5.96,-5.629 -7.93,-7.032 -1.99,-1.398 -3.07,-2.05 -3.18,-1.91 -0.3,0.383 3.79,3.41 9.59,10.293 5.65,6.867 13,18.09 16.26,33.758 1.7,7.762 2.13,16.57 0.77,25.75 -0.7,4.309 -2.43,9 -5.56,11.781 -3.07,2.828 -7.48,2.039 -10.48,-1.761 -11.74,-16.508 -16.29,-41.5 -10.51,-64.848 2.86,-11.723 7.97,-22.613 15.01,-31.52 6.94,-8.793 15.49,-16.761 25.2,-18.6129 9.29,-2.2891 19.64,4.9609 19.44,13.0629 -0.01,4.039 -2.42,7.648 -5.59,10.238 -3.16,2.652 -6.88,4.519 -10.53,6.012 -14.93,5.98 -27.99,8 -36.95,8.867 -9.01,0.82 -14.06,0.66 -14.08,1.082" /><path
       id="path426"
       style="fill:#17282f;fill-opacity:1;fill-rule:nonzero;stroke:none"
       d="m 2091.94,84.5391 c 0.02,-0.0899 -0.91,-0.3907 -2.74,-0.8672 -2.11,-0.5313 -4.8,-1.211 -8.15,-2.043 -7.56,-1.707 -18.1,-4.1172 -31.51,-7.168 -27.41,-6.0312 -67.18,-14.5 -116.58,-24.039 -49.41,-9.461 -108.42,-20.3125 -174.59,-29.3125 -32.99,-4.4375 -68.32,-8.4492 -104.9,-5.2383 -18.25,1.3398 -36.84,4.4805 -54.94,10.5078 -8.97,3.2227 -17.98,6.7305 -26.37,11.7109 -8.41,4.9922 -16.51,10.4219 -23.16,18.6602 l 0.4,-0.4492 c -3.36,3.25 -6.87,6.9609 -9.45,11.3515 -11.11,17.7461 -11.46,39.7887 -5.53,58.5197 6.09,19.117 19.7,34.348 34.84,45.539 15.35,11.168 32.41,18.961 49.53,24.539 8.67,2.461 17.11,5.441 25.69,7.391 8.64,1.711 17.08,4.011 25.59,5.179 68.11,10.762 130.07,5.289 181.54,5.282 25.81,-0.481 49.12,0.218 69.55,1.468 20.41,1.539 37.9,3.86 52.04,6.582 7,1.469 13.26,2.778 18.74,3.938 5.24,1.492 9.74,2.769 13.5,3.851 3.43,0.938 6.18,1.688 8.34,2.289 1.89,0.489 2.87,0.7 2.9,0.622 0.03,-0.09 -0.89,-0.461 -2.73,-1.133 -2.12,-0.719 -4.82,-1.637 -8.2,-2.789 -3.74,-1.211 -8.2,-2.66 -13.41,-4.34 -5.49,-1.301 -11.74,-2.777 -18.74,-4.43 -14.15,-3.051 -31.72,-5.668 -52.22,-7.5 -20.5,-1.531 -43.94,-2.488 -69.79,-2.25 -13.17,-0.109 -27.02,0.141 -41.46,0.379 -42.1,0.711 -89.21,1.422 -139.27,-6.687 -8.4,-1.211 -16.7,-3.5 -25.21,-5.223 -8.46,-1.938 -16.74,-4.899 -25.26,-7.328 -16.8,-5.531 -33.38,-13.18 -48.09,-23.942 -14.54,-10.777 -27.33,-25.269 -32.95,-43.039 -5.56,-17.519 -5.08,-38.1286 5,-54.1598 2.33,-3.961 5.51,-7.2891 8.52,-10.2305 l 0.17,-0.168 0.23,-0.2812 c 5.52,-6.8516 13.55,-12.5196 21.48,-17.1407 8.02,-4.7695 16.74,-8.1679 25.42,-11.3203 17.58,-5.8711 35.77,-8.9882 53.72,-10.3398 36.01,-3.2305 70.86,0.6016 103.86,4.8906 C 1823.79,34.5391 1882.82,45 1932.29,54 c 49.45,9.0703 89.31,16.9922 116.84,22.4102 13.49,2.6601 24.1,4.7421 31.7,6.2421 3.4,0.6172 6.12,1.1172 8.26,1.5196 1.86,0.3281 2.83,0.4375 2.85,0.3672" /><path
       id="path428"
       style="fill:#17282f;fill-opacity:1;fill-rule:nonzero;stroke:none"
       d="m 1694.51,20.1406 c -0.76,0 -1.39,10.6289 -2.63,27.7813 -1.23,17.1367 -3.27,40.7695 -6.74,66.7381 -3.49,25.969 -7.74,49.309 -11.06,66.172 -3.32,16.859 -5.51,27.289 -4.77,27.477 0.65,0.183 4.11,-9.938 8.36,-26.68 4.27,-16.719 9.12,-40.129 12.63,-66.277 3.5,-26.1411 4.97,-50.0004 5.26,-67.2622 0.3,-17.2812 -0.37,-27.9375 -1.05,-27.9492" /><path
       id="path430"
       style="fill:#8c8f8f;fill-opacity:1;fill-rule:nonzero;stroke:none"
       d="m 2049.24,56.9492 v 0 c 32.55,6.0899 53.45,9.9024 53.45,9.9024 v 0 l -53.45,-9.9024 m -68.86,172.4918 -0.01,0.008 19.96,5.793 1.41,-2.332 c -5.51,-0.988 -12.75,-2.199 -21.36,-3.469" /><path
       id="path432"
       style="fill:#9c2438;fill-opacity:1;fill-rule:nonzero;stroke:none"
       d="m 2049.24,56.9492 -6.4,16.043 c 2.31,0.5 4.54,0.9883 6.7,1.4687 13.41,3.0508 23.95,5.461 31.51,7.168 3.35,0.832 6.04,1.5117 8.15,2.043 1.79,0.4687 2.72,0.7578 2.74,0.8594 l 10.75,-17.6797 v 0 c 0,0 -20.9,-3.8125 -53.45,-9.9024 m -7.21,18.0625 -58.85,147.4103 c 3.25,0.777 6.31,1.5 9.16,2.168 4.6,1.492 8.63,2.789 12.09,3.91 l 87.5,-143.9609 c -0.02,0.0117 -0.05,0.0195 -0.11,0.0195 -0.32,0 -1.24,-0.1289 -2.73,-0.3867 -2.14,-0.4024 -4.86,-0.9024 -8.26,-1.5196 -7.6,-1.5 -18.21,-3.582 -31.7,-6.2421 -2.28,-0.4493 -4.65,-0.918 -7.1,-1.3985 m -59.52,149.0903 -2.13,5.339 c 8.61,1.27 15.85,2.481 21.36,3.469 l 2.09,-3.43 c -3.41,-0.98 -7.37,-2.109 -11.89,-3.39 -2.93,-0.621 -6.07,-1.281 -9.43,-1.988" /><path
       id="path434"
       style="fill:#0c1418;fill-opacity:1;fill-rule:nonzero;stroke:none"
       d="m 2042.84,72.9922 -0.81,2.0195 c 2.45,0.4805 4.82,0.9492 7.1,1.3985 13.49,2.6601 24.1,4.7421 31.7,6.2421 3.4,0.6172 6.12,1.1172 8.26,1.5196 1.49,0.2578 2.41,0.3867 2.73,0.3867 0.06,0 0.09,-0.0078 0.11,-0.0195 l 0.01,-0.0078 c -0.02,-0.1016 -0.95,-0.3907 -2.74,-0.8594 -2.11,-0.5313 -4.8,-1.211 -8.15,-2.043 -7.56,-1.707 -18.1,-4.1172 -31.51,-7.168 -2.16,-0.4804 -4.39,-0.9687 -6.7,-1.4687 m -59.66,149.4298 -0.67,1.68 c 3.36,0.707 6.5,1.367 9.43,1.988 4.52,1.281 8.48,2.41 11.89,3.39 l 0.6,-0.98 c -3.46,-1.121 -7.49,-2.418 -12.09,-3.91 -2.85,-0.668 -5.91,-1.391 -9.16,-2.168" /><path
       id="path436"
       style="fill:#17282f;fill-opacity:1;fill-rule:nonzero;stroke:none"
       d="m 2877.96,702.281 c -11.07,-3.691 -722.82,195.75 -1010.65,276.688 -75.6,21.251 -156.67,8.98 -222.59,-33.688 l -3.47,-2.25 c -96.77,-62.64 -143.86,-179.242 -117.73,-291.511 16.58,-71.29 61,-132.911 123.42,-171.161 189.81,-116.269 591.5,-360.91 603.78,-356.148 16.11,6.23 517.77,19.25 517.77,19.25 l -603.52,434.031 287.11,-185.551 425.88,310.34" /><path
       id="path438"
       style="fill:#f8a58d;fill-opacity:1;fill-rule:nonzero;stroke:none"
       d="m 2283.74,918.871 151.3,78.258 148.37,-93.008 555.48,-18.141 80.4,-270.441 -803.99,186.391 c 0,0 -146.34,-12.95 -157.3,19.941 -10.96,32.891 25.74,97 25.74,97" /><path
       id="path440"
       style="fill:#17282f;fill-opacity:1;fill-rule:nonzero;stroke:none"
       d="m 2738.83,485.48 -74.77,-245.57 9.29,-74.84 c 136.25,-137.3395 353.36,-151.9684 506.81,-34.16 93.28,71.629 147.74,182.731 147.23,300.332 l -1.13,256.598 -587.43,-202.36" /><path
       id="path442"
       style="fill:#33535f;fill-opacity:1;fill-rule:nonzero;stroke:none"
       d="m 2293.49,483.879 c -0.86,-1.149 -87.67,62.141 -193.87,141.351 -106.23,79.239 -191.63,144.379 -190.78,145.532 0.86,1.16 87.66,-62.11 193.9,-141.352 106.2,-79.211 191.61,-144.379 190.75,-145.531" /><path
       id="path444"
       style="fill:#f68260;fill-opacity:1;fill-rule:nonzero;stroke:none"
       d="m 2424.84,948.109 c 0.44,-1.379 -32.7,-13.207 -74.01,-26.449 -41.31,-13.238 -75.15,-22.859 -75.59,-21.488 -0.44,1.379 32.69,13.207 74.01,26.437 41.3,13.25 75.15,22.871 75.59,21.5" /><path
       id="path446"
       style="fill:#f68260;fill-opacity:1;fill-rule:nonzero;stroke:none"
       d="m 2436.15,902 c 0.07,-0.77 -9.84,-2.25 -25.77,-4.848 -15.93,-2.601 -37.87,-6.504 -61.84,-12 -23.98,-5.531 -45.42,-11.593 -60.89,-16.211 -15.47,-4.621 -25.03,-7.621 -25.29,-6.902 -0.24,0.633 8.88,4.859 24.14,10.391 15.25,5.55 36.71,12.222 60.88,17.789 24.16,5.543 46.37,8.91 62.51,10.582 16.15,1.679 26.2,1.859 26.26,1.199" /><path
       id="path448"
       style="fill:#f68260;fill-opacity:1;fill-rule:nonzero;stroke:none"
       d="m 2423.48,859.691 c 0.28,-1.421 -37.04,-10 -83.35,-19.191 -46.33,-9.18 -84.1,-15.48 -84.38,-14.07 -0.27,1.422 37.04,10 83.36,19.179 46.31,9.192 84.1,15.493 84.37,14.082" /><path
       id="path450"
       style="fill:#33535f;fill-opacity:1;fill-rule:nonzero;stroke:none"
       d="m 2227.2,1281.66 139.56,-459.219 c 1.6,-5.25 6.26,-8.98 11.73,-9.39 l 380.31,-28.539 c 6.93,-0.52 12.31,-6.301 12.31,-13.27 V 747.5 c 0,-7.441 -6.12,-13.43 -13.56,-13.301 L 1717.94,753.73 c -5.42,0.11 -10.24,3.5 -12.18,8.571 l -182.82,478.979 c -3.23,8.46 2.76,17.61 11.8,18.03 l 679.11,31.77 c 6.08,0.28 11.58,-3.6 13.35,-9.42" /><path
       id="path452"
       style="fill:#dadbd8;fill-opacity:1;fill-rule:nonzero;stroke:none"
       d="m 1934.25,1083.79 c -7.39,-1.94 -19.12,-12.38 -20.57,-23.35 -1.44,-10.97 4.46,-22.15 13.44,-28.61 10.95,-7.88 26.8,-8.95 38,-1.43 11.21,7.53 16.17,22.4 10.38,38.38 -4.6,12.69 -27.81,21.56 -41.25,15.01" /><path
       id="path454"
       style="fill:#17282f;fill-opacity:1;fill-rule:nonzero;stroke:none"
       d="m 2102.69,66.8516 -109.88,180.7574 808.02,633.282 c 50.26,41.23 111.74,66.429 176.49,72.328 200.98,18.301 369.8,-149.258 353,-350.379 L 3317.41,448.332 2781.07,275.992 2102.69,66.8516" /><path
       id="path456"
       style="fill:#33535f;fill-opacity:1;fill-rule:nonzero;stroke:none"
       d="m 3138.89,496.051 c 0.06,-0.071 -0.67,-0.742 -2.14,-1.992 -1.71,-1.418 -3.89,-3.207 -6.6,-5.438 -6.17,-4.93 -14.79,-11.808 -25.73,-20.539 -5.65,-4.453 -11.88,-9.391 -18.69,-14.762 -6.81,-5.41 -14.85,-10.422 -23.15,-16.281 -8.39,-5.75 -17.35,-11.887 -26.84,-18.387 -4.77,-3.242 -9.61,-6.672 -14.71,-9.98 -5.22,-3.141 -10.56,-6.352 -16.04,-9.652 -21.95,-13.11 -45.65,-28.118 -72.52,-41.688 -13.32,-6.973 -26.91,-14.57 -41.27,-21.672 -14.48,-6.871 -29.37,-13.93 -44.65,-21.16 -61.51,-28.051 -130.41,-56.25 -204.27,-81.371 -147.58,-50.848 -284.04,-87.469 -381.77,-117.09 -24.49,-7.207 -46.58,-13.957 -65.92,-20.0781 -19.38,-5.9804 -36.08,-11.1406 -49.59,-15.7421 -13.31,-4.3282 -23.78,-7.7266 -31.28,-10.168 -3.37,-1.0313 -6.06,-1.8594 -8.18,-2.5195 -1.86,-0.5313 -2.82,-0.7696 -2.85,-0.6797 -0.03,0.0781 0.87,0.4804 2.67,1.1875 2.08,0.7812 4.72,1.7695 8.01,3.0117 7.43,2.6484 17.8,6.3789 30.98,11.0898 13.43,4.8907 30.04,10.3399 49.35,16.5899 19.28,6.3905 41.3,13.3905 65.75,20.8205 97.51,30.551 233.79,67.73 381.12,118.5 73.75,25.078 142.52,53.078 203.98,80.801 15.27,7.16 30.16,14.128 44.62,20.918 14.36,7 27.94,14.5 41.27,21.371 26.89,13.359 50.61,28.148 72.63,41.011 5.5,3.239 10.86,6.399 16.09,9.477 5.13,3.242 9.97,6.633 14.77,9.793 9.54,6.367 18.55,12.379 26.99,18.019 8.36,5.731 16.46,10.61 23.35,15.899 6.89,5.223 13.2,10.012 18.92,14.351 11.19,8.399 19.99,15 26.29,19.739 2.86,2.07 5.14,3.73 6.94,5.039 1.57,1.113 2.41,1.652 2.47,1.582" /><path
       id="path458"
       style="fill:#33535f;fill-opacity:1;fill-rule:nonzero;stroke:none"
       d="m 3158.5,411.531 c 0.13,-0.34 -2.78,-1.84 -8.16,-4.269 -5.37,-2.473 -13.28,-5.68 -23.18,-9.371 -19.78,-7.371 -47.7,-16.121 -79.24,-22.922 -31.55,-6.75 -60.6,-10.25 -81.67,-11.649 -10.53,-0.711 -19.07,-1.031 -24.98,-0.98 -5.91,0 -9.17,0.172 -9.19,0.531 -0.03,0.809 12.96,1.77 33.84,4.121 20.87,2.328 49.6,6.367 80.91,13.078 31.29,6.75 59.15,14.86 79.13,21.309 19.99,6.441 32.24,10.891 32.54,10.152" /><path
       id="path460"
       style="fill:#33535f;fill-opacity:1;fill-rule:nonzero;stroke:none"
       d="M 2768.49,850.512 C 2769.38,849.371 2596.44,713.48 2382.27,547.02 2168.03,380.5 1993.7,246.492 1992.81,247.621 c -0.88,1.129 172.03,136.988 386.26,303.52 214.17,166.449 388.54,300.5 389.42,299.371" /><path
       id="path462"
       style="fill:#f03d5f;fill-opacity:1;fill-rule:nonzero;stroke:none"
       d="m 2721.79,178.5 c -38.75,20.672 -82.27,8.461 -119.35,-4.039 -24.68,-8.32 -50.34,-21.5 -75.41,-14.449 -18.13,5.109 -31.61,19.797 -45.46,32.57 -55.84,51.508 -132.85,79.598 -208.86,74.84 -21.59,-1.352 -42.69,-10.043 -57.36,-25.93 -38.07,-41.23 -9.36,-94.89 24.66,-129.562 60.06,-61.2191 141.85,-100.6683 227.13,-109.57062 70.9,-7.41016 168.37,2.39062 240.27,33.17192 44.33,18.9804 67.06,71.2577 43.8,113.4997 -6.77,12.309 -16.68,22.668 -29.42,29.469" /><path
       id="path464"
       style="fill:#8c8f8f;fill-opacity:1;fill-rule:nonzero;stroke:none"
       d="m 2514.84,0 c -16.78,0 -32.87,0.800781 -47.78,2.35938 C 2416.32,7.66016 2366.82,23.7617 2322.4,48.832 h 0.08 C 2366.9,23.7617 2416.4,7.66016 2467.14,2.35938 2482.04,0.800781 2498.12,0.0117188 2514.88,0 c -0.01,0 -0.03,0 -0.04,0 m -201.29,54.0391 c -0.08,0 -0.01,0 -0.09,0 -25.96,15.6015 -50.04,34.3203 -71.44,55.7699 l 0.07,0.023 c 21.4,-21.4609 45.49,-40.1914 71.46,-55.7929" /><path
       id="path466"
       style="fill:#0c1418;fill-opacity:1;fill-rule:nonzero;stroke:none"
       d="m 2322.4,48.832 c -3.01,1.6993 -5.98,3.4297 -8.94,5.2071 0.08,0 0.01,0 0.09,0 2.95,-1.7774 5.93,-3.5078 8.93,-5.2071 h -0.08" /><path
       id="path468"
       style="fill:#0c1418;fill-opacity:1;fill-rule:nonzero;stroke:none"
       d="m 2242.02,109.809 c -0.18,0.183 -0.38,0.382 -0.57,0.57 0.03,0.012 0.05,0.012 0.07,0.019 0.19,-0.187 0.38,-0.386 0.57,-0.566 l -0.07,-0.023 m -3.31,3.363 c -12.58,13.047 -24.28,28.668 -32.02,45.238 7.76,-16.57 19.51,-32.168 32.09,-45.211 -0.02,-0.008 -0.05,-0.019 -0.07,-0.027" /><path
       id="path470"
       style="fill:#1a2c33;fill-opacity:1;fill-rule:nonzero;stroke:none"
       d="m 2241.45,110.379 c -0.51,0.512 -1.02,1.031 -1.53,1.551 -0.4,0.41 -0.81,0.832 -1.21,1.242 0.02,0.008 0.05,0.019 0.07,0.027 0.41,-0.429 0.82,-0.847 1.23,-1.269 0.5,-0.508 1.01,-1.02 1.51,-1.532 -0.02,-0.007 -0.04,-0.007 -0.07,-0.019" /><path
       id="path472"
       style="fill:#9c2438;fill-opacity:1;fill-rule:nonzero;stroke:none"
       d="m 2514.88,0 c -16.76,0.0117188 -32.84,0.800781 -47.74,2.35938 -50.74,5.30078 -100.24,21.40232 -144.66,46.47262 -3,1.6993 -5.98,3.4297 -8.93,5.2071 -25.97,15.6015 -50.06,34.332 -71.46,55.7929 -0.19,0.18 -0.38,0.379 -0.57,0.566 -0.5,0.512 -1.01,1.024 -1.51,1.532 -0.41,0.422 -0.82,0.84 -1.23,1.269 -12.58,13.043 -24.33,28.641 -32.09,45.211 -3.24,6.93 -5.78,14.031 -7.41,21.172 2.55,10.008 7.55,19.777 15.98,28.91 14.68,15.887 35.78,24.578 57.36,25.93 5.58,0.348 11.15,0.519 16.72,0.519 70.46,0 140.4,-27.632 192.15,-75.359 13.84,-12.769 27.33,-27.461 45.46,-32.562 4.98,-1.411 9.99,-2.008 15.01,-2.008 20.22,0 40.62,9.777 60.4,16.449 22.63,7.629 47.67,15.16 72.56,15.16 15.88,0 31.7,-3.07 46.79,-11.121 12.74,-6.801 22.64,-17.16 29.42,-29.469 3.49,-6.34 5.82,-12.91 7.33,-19.5622 -5.74,-26.0704 -24.48,-49.5274 -51.13,-60.9375 C 2650.56,11.2305 2577.86,0.0117188 2514.88,0" /><path
       id="path474"
       style="fill:#17282f;fill-opacity:1;fill-rule:nonzero;stroke:none"
       d="m 2758.46,96.4688 c -0.71,-0.2383 -0.52,9.4722 -9.5,22.9722 -4.5,6.579 -11.21,14.008 -20.74,20.27 -9.38,6.348 -21.53,11.84 -35.63,13.641 -28.78,3.378 -62.12,-8.731 -99.16,-18.75 -18.31,-4.852 -38.31,-12.262 -60.21,-9.52 -10.69,1.387 -21.41,4.938 -30.96,10.719 -9.52,5.711 -18.19,12.758 -26.61,20.039 -31.93,31.172 -69.8,50.68 -106,62.992 -18.11,6.078 -35.9,10.078 -52.74,12.238 -16.85,2.219 -32.71,2.5 -46.91,0.282 -14.18,-2.211 -26.5,-6.86 -36.29,-12.672 -9.74,-5.899 -16.98,-12.739 -22.22,-18.828 -10.29,-12.461 -13.76,-20.993 -14.32,-20.672 0,0 2.74,8.82 12.75,21.961 5.12,6.418 12.34,13.691 22.27,20.031 9.96,6.23 22.64,11.297 37.21,13.808 14.59,2.532 30.92,2.45 48.03,0.372 17.15,-2.012 35.28,-5.911 53.72,-11.973 18.47,-6 37.22,-14.207 55.65,-24.547 9.11,-5.301 18.4,-10.812 27.08,-17.641 8.62,-6.75 16.79,-14.179 25.17,-21.402 8.35,-7.23 16.81,-14.09 25.85,-19.527 8.99,-5.473 18.9,-8.75 28.97,-10.121 20.28,-2.68 39.73,4.257 58.3,9.089 36.88,9.649 70.79,21.731 100.88,17.782 29.86,-4.762 49.09,-22.692 57.61,-36.473 4.37,-7.047 6.31,-13.269 7.17,-17.508 0.73,-4.281 0.77,-6.5505 0.63,-6.5622" /><path
       id="path476"
       style="fill:#17282f;fill-opacity:1;fill-rule:nonzero;stroke:none"
       d="m 2758.46,96.4688 c -0.71,-0.2383 -0.52,9.4722 -9.5,22.9722 -4.5,6.579 -11.21,14.008 -20.74,20.27 -9.38,6.348 -21.53,11.84 -35.63,13.641 -28.78,3.378 -62.12,-8.731 -99.16,-18.75 -18.31,-4.852 -38.31,-12.262 -60.21,-9.52 -10.69,1.387 -21.41,4.938 -30.96,10.719 -9.52,5.711 -18.19,12.758 -26.61,20.039 -31.93,31.172 -69.8,50.68 -106,62.992 -18.11,6.078 -35.9,10.078 -52.74,12.238 -16.85,2.219 -32.71,2.5 -46.91,0.282 -14.18,-2.211 -26.5,-6.86 -36.29,-12.672 -9.74,-5.899 -16.98,-12.739 -22.22,-18.828 -10.29,-12.461 -13.76,-20.993 -14.32,-20.672 0,0 2.74,8.82 12.75,21.961 5.12,6.418 12.34,13.691 22.27,20.031 9.96,6.23 22.64,11.297 37.21,13.808 14.59,2.532 30.92,2.45 48.03,0.372 17.15,-2.012 35.28,-5.911 53.72,-11.973 18.47,-6 37.22,-14.207 55.65,-24.547 9.11,-5.301 18.4,-10.812 27.08,-17.641 8.62,-6.75 16.79,-14.179 25.17,-21.402 8.35,-7.23 16.81,-14.09 25.85,-19.527 8.99,-5.473 18.9,-8.75 28.97,-10.121 20.28,-2.68 39.73,4.257 58.3,9.089 36.88,9.649 70.79,21.731 100.88,17.782 29.86,-4.762 49.09,-22.692 57.61,-36.473 4.37,-7.047 6.31,-13.269 7.17,-17.508 0.73,-4.281 0.77,-6.5505 0.63,-6.5622" /><path
       id="path478"
       style="fill:#17282f;fill-opacity:1;fill-rule:nonzero;stroke:none"
       d="m 2277.77,105.801 c -0.36,0.59 7.11,6 19.84,13.75 12.72,7.758 30.76,17.73 51.35,27.418 20.6,9.66 39.79,17.203 53.87,22.051 14.1,4.851 23.03,7.16 23.26,6.511 0.24,-0.711 -8.26,-4.25 -21.94,-9.949 -13.69,-5.703 -32.52,-13.723 -52.98,-23.332 -20.44,-9.621 -38.62,-19 -51.74,-25.898 -13.13,-6.903 -21.27,-11.192 -21.66,-10.551" /><path
       id="path480"
       style="fill:#17282f;fill-opacity:1;fill-rule:nonzero;stroke:none"
       d="m 2291.08,67.0313 c -0.63,1.3007 33.27,18.9804 75.7,39.4997 42.44,20.508 77.34,36.09 77.97,34.801 0.62,-1.301 -33.26,-18.973 -75.7,-39.492 -42.44,-20.5197 -77.35,-36.09 -77.97,-34.8087" /><path
       id="path482"
       style="fill:#17282f;fill-opacity:1;fill-rule:nonzero;stroke:none"
       d="m 2451.65,50.2305 c -0.77,-1.2188 -42.07,23.4297 -92.24,55.0395 -50.18,31.609 -90.23,58.222 -89.47,59.441 0.77,1.219 42.06,-23.422 92.25,-55.039 50.17,-31.6095 90.22,-58.2228 89.46,-59.4415" /><path
       id="path484"
       style="fill:#17282f;fill-opacity:1;fill-rule:nonzero;stroke:none"
       d="m 2474.89,90.4414 c -0.46,-0.5703 -8.07,4.7578 -20.22,13.5196 -12.15,8.758 -28.92,20.859 -47.67,33.879 -18.78,13 -35.98,24.449 -48.45,32.75 -12.46,8.312 -20.13,13.551 -19.75,14.199 0.35,0.59 8.69,-3.539 21.7,-11.078 13,-7.52 30.62,-18.531 49.46,-31.602 18.85,-13.058 35.34,-25.699 46.96,-35.23 11.61,-9.5274 18.4,-15.8868 17.97,-16.4376" /></g></svg>
